<svg xmlns="http://www.w3.org/2000/svg" viewBox="0 0 24 24" role="img" aria-labelledby="title">
  <title>GitHub</title>
  <circle cx="12" cy="12" r="11.5" fill="#181717" />
  <g transform="translate(1 1) scale(0.9167)">
    <path fill="#ffffff" d="M12 .297c-6.63 0-12 5.373-12 12 0 5.302 3.438 9.8 8.205 11.387.6.113.82-.258.82-.577 0-.285-.01-1.04-.015-2.04-3.338.724-4.042-1.61-4.042-1.61-.546-1.387-1.333-1.757-1.333-1.757-.89-.61.068-.597.068-.597 1.003.07 1.53 1.028 1.53 1.028.875 1.5 2.295 1.066 2.853.815.09-.634.342-1.066.622-1.31-2.665-.303-5.467-1.332-5.467-5.93 0-1.31.468-2.381 1.236-3.221-.124-.303-.536-1.523.117-3.176 0 0 1.008-.322 3.303 1.23a11.52 11.52 0 0 1 6.007 0c2.295-1.552 3.303-1.23 3.303-1.23.653 1.653.241 2.873.117 3.176.768.84 1.236 1.911 1.236 3.221 0 4.609-2.807 5.625-5.479 5.922.348.3.66.896.66 1.806 0 1.305-.012 2.359-.012 2.68 0 .321.216.694.825.576C20.565 22.092 24 17.592 24 12.297c0-6.627-5.373-12-12-12z"/>
  </g>
</svg>
