<svg xmlns="http://www.w3.org/2000/svg" width="288" height="79" fill="none" viewBox="0 0 288 79"><path fill="#154677" d="M65.585 50.91c-2.275-2.201-5.776-2.37-8.226-.621l-3.676-3.556a6.18 6.18 0 0 0 1.4-3.95c0-3.612-3.034-6.547-6.827-6.547-3.792 0-6.826 2.935-6.826 6.547s3.034 6.603 6.826 6.603c3.793 0 2.918-.508 4.085-1.355l3.675 3.556c-1.633 2.088-1.633 4.966-.058 7.11l-3.676 3.387c-1.108-.79-2.45-1.242-4.026-1.242-3.5 0-6.36 2.427-6.36 5.418s2.86 5.418 6.36 5.418 6.36-2.427 6.36-5.418-.35-2.031-.992-2.878l3.618-3.33c2.509 1.863 6.068 1.75 8.343-.451 2.451-2.37 2.451-6.265 0-8.691"/><path fill="#154677" d="m40.674 27.042 3.909-3.386a7.13 7.13 0 0 0 3.676 1.016c1.4 0 2.625-.395 3.675-1.016l3.91 3.386c-1.576 2.314-1.226 5.53.875 7.619 2.159 2.088 5.426 2.37 7.818.903l3.443 3.725a6.7 6.7 0 0 0-1.05 3.555c0 3.386 2.509 6.152 5.601 6.152s5.601-2.766 5.601-6.152-2.508-6.151-5.6-6.151c-3.093 0-2.335.451-3.268 1.185l-3.268-3.556c2.042-2.37 1.867-5.87-.467-8.127s-5.951-2.37-8.402-.451l-3.734-3.273c.759-.903 1.225-1.976 1.225-3.16 0-2.992-2.858-5.419-6.36-5.419-3.5 0-6.36 2.427-6.36 5.418s.468 2.314 1.226 3.16l-3.734 3.274a6.48 6.48 0 0 0-7.702-.339l-2.392-2.427c1.4-1.749 1.634-3.95.758-5.7l3.21-2.652c1.925 1.467 4.9 1.298 7.06-.508 2.392-2.032 2.858-5.362.991-7.393-.933-1.073-2.275-1.58-3.734-1.58s-2.859.507-4.026 1.523c-2.1 1.806-2.742 4.572-1.575 6.603l-3.15 2.596c-2.043-1.636-5.252-1.298-7.411.79-2.217 2.202-2.392 5.588-.35 7.45 1.809 1.693 4.668 1.693 6.826.17l2.393 2.426c-1.926 2.427-1.75 5.87.583 8.127 2.51 2.427 6.535 2.427 8.986.057 2.159-2.089 2.392-5.362.758-7.732zm-16.81 9.648c-3.092 0-5.601 2.765-5.601 6.151 0 3.387.408 2.653 1.108 3.669l-2.567 2.935c-.934-.678-2.042-1.073-3.21-.96-.874.056-1.691.395-2.391.903L8.052 45.72a6.5 6.5 0 0 0 .642-2.822c0-1.016-.234-2.032-.7-2.879l3.034-3.611c.7.451 1.458.79 2.333.846 2.801.226 5.31-2.145 5.543-5.192.234-3.104-1.867-5.757-4.667-5.926-.876-.056-1.692.113-2.392.508l-1.81-2.935c.176-.169.292-.395.467-.564 1.46-2.201 1.4-4.628-.116-5.361-.292-.17-.7-.226-1.05-.226-1.46 0-3.21 1.072-4.376 2.822-1.46 2.2-1.4 4.627.116 5.361.992.508 2.334.17 3.56-.677l1.691 2.765c-.875.903-1.458 2.201-1.575 3.612s.292 2.71.992 3.781L6.885 38.61c-.7-.621-1.575-1.016-2.509-1.016C1.984 37.593 0 40.019 0 43.01c0 2.99 1.984 5.418 4.376 5.418s1.867-.395 2.567-1.016l3.034 3.442c-.7 1.016-1.05 2.314-.992 3.725.234 3.104 2.743 5.418 5.543 5.192s4.902-2.878 4.668-5.982c-.058-1.072-.467-2.032-.992-2.878l2.568-2.878a5.16 5.16 0 0 0 3.15 1.072c3.093 0 5.602-2.766 5.602-6.152s-2.51-6.151-5.602-6.151zm68.436.727c-.934 0-1.81.452-2.568 1.13l-3.15-3.556c.7-1.016 1.05-2.314.933-3.669a6 6 0 0 0-1.4-3.386l1.517-2.201c1.283 1.016 2.742 1.355 3.792.734 1.459-.903 1.459-3.5 0-5.757-1.108-1.75-2.8-2.765-4.142-2.765s-.817.113-1.167.338c-1.459.903-1.459 3.443 0 5.757.058.113.175.226.233.338l-1.634 2.427c-.816-.451-1.692-.677-2.625-.62-2.8.225-4.901 2.878-4.668 5.982s2.742 5.418 5.543 5.192c.934-.056 1.75-.395 2.45-.903l3.385 3.838a6.6 6.6 0 0 0-.584 2.709c0 2.99 1.867 5.418 4.201 5.418s4.201-2.427 4.201-5.418-1.867-5.418-4.2-5.418zM19.2 13.432c1.401-1.242 2.16-2.878 2.101-4.176l3.618-2.54c.992.339 2.392.282 3.85-.395 2.393-1.072 3.968-3.217 3.502-4.797C31.979.508 30.929 0 29.645 0s-1.692.17-2.567.565c-2.393 1.072-3.968 3.16-3.501 4.74l-3.093 2.201c-1.283-.96-3.675-.508-5.543 1.185-2.042 1.806-2.742 4.29-1.517 5.588 1.167 1.298 3.793.846 5.835-.96zm71.358 46.502c-.934-.395-2.159-.113-3.268.677l-1.283-2.37c.992-.96 1.634-2.258 1.809-3.838.233-3.104-1.868-5.757-4.668-5.982h-.35c-2.684 0-4.96 2.257-5.193 5.248-.117 1.242.233 2.427.758 3.443l-3.734 3.781c-2.042-1.185-4.96-.79-6.885 1.185-2.217 2.201-2.392 5.588-.35 7.45 1.692 1.58 4.318 1.637 6.418.395l2.743 3.386c-1.576 1.75-2.16 3.725-1.284 4.74.35.396.817.565 1.4.565 1.167 0 2.626-.677 3.968-1.862 1.984-1.806 2.859-4.233 1.867-5.305-.875-.96-2.8-.621-4.61.677l-2.683-3.273c1.808-1.975 2.1-4.684.758-6.547l3.56-3.612c.758.621 1.633 1.016 2.683 1.072.759 0 1.517-.112 2.16-.338l1.4 2.652c-.234.226-.409.508-.584.79-1.4 2.258-1.284 4.628.233 5.306s3.91-.565 5.31-2.766c1.4-2.257 1.284-4.628-.233-5.305zm19.538-46.897h2.567l4.084 10.667 4.201-10.667h2.509v13.094h-1.925v-9.877l-3.91 9.877h-1.633l-3.851-9.877v9.877h-1.926V13.037zm15.718 8.353c0-1.016.175-1.92.584-2.71.408-.733.933-1.354 1.692-1.75.7-.394 1.575-.62 2.567-.62q2.275 0 3.501 1.355c.875.903 1.283 2.144 1.283 3.668s-.408 2.822-1.283 3.726c-.875.902-2.042 1.354-3.559 1.354s-2.684-.451-3.56-1.355c-.816-.903-1.283-2.144-1.283-3.668zm2.042-.057c0 1.016.234 1.863.642 2.54.409.621 1.109.96 2.101.96s1.692-.339 2.1-.96c.409-.62.642-1.467.642-2.54s-.233-1.862-.642-2.483c-.408-.621-1.167-.96-2.1-.96-.934 0-1.634.339-2.101.96-.408.62-.642 1.467-.642 2.483m9.741-8.296h1.984v4.91c.467-.564.992-1.015 1.576-1.241.583-.226 1.108-.395 1.75-.395 1.109 0 1.925.282 2.451.903.525.62.816 1.467.816 2.596v6.32h-1.983v-5.982c0-.79-.175-1.354-.467-1.693q-.438-.508-1.4-.508c-.642 0-.701.057-.992.17-.35.113-.642.282-.934.564-.292.226-.467.508-.642.79-.116.282-.233.62-.233 1.072v5.588h-1.984V13.037zm10.32 10.441c0-.62.116-1.185.408-1.58s.642-.734 1.109-.96a6.4 6.4 0 0 1 1.575-.508 10 10 0 0 1 1.867-.17h1.634v-.394c0-.734-.175-1.298-.467-1.58q-.525-.51-1.575-.509-1.05 0-1.576.34a1.38 1.38 0 0 0-.641.959l-1.809-.17c.175-.903.583-1.524 1.284-1.975.7-.395 1.633-.621 2.8-.621s2.451.339 3.034.96q.875.93.875 2.709v6.152h-1.925v-1.242c-.35.395-.817.734-1.342 1.016s-1.167.395-1.925.395c-.759 0-1.809-.226-2.451-.734-.642-.451-.934-1.185-.934-2.144zm1.984-.056c0 .451.116.79.408 1.072s.7.395 1.342.395 1.575-.226 2.1-.62c.526-.396.817-1.017.817-1.807v-.96h-1.517q-1.225.085-1.925.34c-.467.169-.759.338-.934.62s-.291.621-.291 1.016zm8.979-6.818h1.926v1.41a4.1 4.1 0 0 1 1.4-1.24 3.26 3.26 0 0 1 1.575-.396c.525 0 1.284.17 1.751.451.466.283.817.734.992 1.299.875-1.13 1.983-1.75 3.267-1.75s1.75.282 2.276.79.758 1.355.758 2.484v6.547h-1.984v-6.152c0-.79-.116-1.299-.408-1.58-.292-.283-.642-.396-1.167-.396s-.584 0-.875.113-.584.226-.875.508c-.234.17-.409.452-.526.677-.116.283-.233.565-.233.904v5.982h-1.984v-6.152c0-.734-.117-1.242-.408-1.58-.292-.282-.642-.452-1.167-.452s-1.167.226-1.692.734c-.175.17-.409.395-.584.677s-.233.621-.233 1.13v5.7h-1.984v-9.539zm15.766 4.85c0-1.073.175-2.032.583-2.822s.934-1.355 1.634-1.75 1.517-.621 2.45-.621 1.867.226 2.509.62c.642.396 1.109.96 1.459 1.638.292.677.467 1.524.467 2.427v.846h-7.119c0 .96.292 1.75.759 2.258.467.564 1.108.79 1.984.79s1.283-.113 1.633-.395.584-.677.759-1.129h1.867c-.175.96-.583 1.694-1.284 2.201-.7.565-1.692.79-2.975.79s-2.684-.45-3.501-1.297c-.817-.904-1.225-2.089-1.225-3.67zm2.392-2.37c-.175.394-.292.902-.35 1.41h5.134c0-.903-.233-1.58-.583-2.088-.35-.452-.992-.734-1.867-.734-.876 0-1.109.113-1.459.395-.35.226-.642.565-.817 1.016zm8.512 2.362c0-1.58.408-2.821 1.167-3.724q1.137-1.355 3.15-1.355c1.342 0 1.05.113 1.517.282.525.226.992.565 1.401 1.073v-4.685h1.983v13.094h-1.925v-1.298a4.6 4.6 0 0 1-1.4 1.185c-.525.282-1.109.395-1.809.395s-1.692-.226-2.334-.677-1.05-1.016-1.342-1.806a7 7 0 0 1-.467-2.54zm2.042-.056c0 .846.116 1.58.35 2.032.233.508.583.846.933 1.072.409.226.759.339 1.226.339.816 0 1.517-.283 1.983-.79.526-.565.759-1.299.759-2.314v-.565c0-1.129-.233-1.919-.759-2.427-.466-.507-1.108-.79-1.925-.79s-1.4.283-1.867.79c-.525.508-.759 1.411-.759 2.71zm17.334 4.74h-1.925V13.038h1.984v4.797c.408-.508.875-.846 1.4-1.128s1.109-.395 1.809-.395 1.692.225 2.275.62c.642.395 1.051 1.016 1.401 1.75.291.734.467 1.637.467 2.596 0 1.58-.409 2.822-1.167 3.781q-1.138 1.355-3.151 1.355c-1.342 0-1.109-.113-1.634-.339s-.992-.62-1.4-1.129v1.186zm.059-5.079v.565c0 1.128.233 1.975.758 2.483.467.508 1.109.734 1.926.734s1.4-.283 1.867-.79c.467-.565.758-1.411.758-2.71 0-1.297-.116-1.58-.35-2.031-.233-.508-.525-.847-.933-1.072s-.759-.34-1.226-.34c-.816 0-1.458.283-1.983.791s-.759 1.298-.759 2.314zm9.444-8.014h2.042v1.976h-2.042zm0 3.556h1.984v9.538h-1.984zm4.491.007h1.926v1.354a4.2 4.2 0 0 1 1.575-1.298 3.95 3.95 0 0 1 1.751-.395c1.108 0 1.925.282 2.45.903.525.62.817 1.468.817 2.596v6.322h-1.984v-5.983c0-.79-.175-1.355-.466-1.693q-.438-.508-1.401-.508c-.642 0-.7.056-.992.17a2.3 2.3 0 0 0-.933.564c-.292.225-.467.508-.642.79a2.7 2.7 0 0 0-.233 1.072v5.588h-1.984v-9.539zm15.64 8.007 7.468-9.82h-7.352v-1.75h9.803v1.58l-7.469 9.764h7.76l-.291 1.75h-9.919zm11.326-1.129c0-.62.117-1.185.409-1.58s.642-.734 1.109-.96a6.4 6.4 0 0 1 1.575-.508 10 10 0 0 1 1.867-.17h1.634v-.394c0-.734-.175-1.298-.467-1.58q-.525-.51-1.575-.509-1.051 0-1.576.34a1.38 1.38 0 0 0-.642.959l-1.808-.17c.175-.903.583-1.524 1.283-1.975.7-.395 1.634-.621 2.801-.621s2.45.339 3.034.96q.875.93.875 2.709v6.152h-1.925v-1.242c-.35.395-.817.734-1.342 1.016s-1.167.395-1.926.395-1.808-.226-2.45-.734-.934-1.185-.934-2.144zm1.984-.056c0 .451.117.79.409 1.072.291.282.7.395 1.342.395s1.575-.226 2.1-.62c.525-.396.817-1.017.817-1.807v-.96h-1.517q-1.226.085-1.925.34c-.467.169-.759.338-.934.62s-.292.621-.292 1.016zm9.038 4.7c.408.113.758.17 1.108.17s.7-.113.934-.339c.233-.226.467-.62.7-1.242l.35-.903-4.143-9.199h2.218l2.859 7.055 2.625-7.055h2.101l-4.201 10.272c-.292.677-.525 1.185-.817 1.636-.292.452-.584.79-.934 1.016q-.525.339-1.4.339c-.583 0-.583 0-.875-.057-.292 0-.525-.113-.875-.225l.35-1.524zm9.388-6.668c0-1.073.175-2.032.583-2.822.409-.79.934-1.355 1.634-1.75s1.517-.621 2.451-.621c.933 0 1.867.226 2.509.62.641.396 1.108.96 1.458 1.638.292.677.467 1.524.467 2.427v.846h-7.118c0 .96.291 1.75.758 2.258.467.564 1.109.79 1.984.79s1.284-.113 1.634-.395.583-.677.758-1.129h1.867c-.175.96-.583 1.694-1.283 2.201-.7.565-1.692.79-2.976.79s-2.684-.45-3.501-1.297c-.817-.904-1.225-2.089-1.225-3.67zm2.392-2.37c-.175.394-.292.902-.35 1.41h5.135c0-.903-.234-1.58-.584-2.088-.35-.452-.992-.734-1.867-.734s-1.109.113-1.459.395c-.35.226-.641.565-.817 1.016zm8.526 2.362c0-1.58.408-2.821 1.167-3.724q1.137-1.355 3.15-1.355c1.342 0 1.051.113 1.517.282.525.226.992.565 1.401 1.073v-4.685h1.983v13.094h-1.925v-1.298a4.6 4.6 0 0 1-1.4 1.185c-.525.282-1.109.395-1.809.395s-1.692-.226-2.334-.677-1.05-1.016-1.342-1.806a7 7 0 0 1-.467-2.54zm2.042-.056c0 .846.116 1.58.35 2.032.233.508.583.846.933 1.072.409.226.759.339 1.226.339.817 0 1.517-.283 1.983-.79.526-.565.759-1.299.759-2.314v-.565c0-1.129-.233-1.919-.759-2.427-.466-.507-1.108-.79-1.925-.79s-1.4.283-1.867.79c-.525.508-.759 1.411-.759 2.71zM110.173 40.464v-7.788h2.1v7.901c0 1.242.234 2.201.759 2.822.525.62 1.283.96 2.392.96s1.926-.34 2.392-.96c.467-.62.7-1.58.7-2.822v-7.901h2.101v7.845q0 2.878-1.4 4.232-1.401 1.355-3.851 1.355c-1.634 0-2.976-.452-3.851-1.355s-1.342-2.314-1.342-4.289m12.999-4.158h1.926v1.355a4.2 4.2 0 0 1 1.575-1.298 3.95 3.95 0 0 1 1.751-.395c1.108 0 1.925.282 2.45.903.525.62.817 1.467.817 2.596v6.322h-1.984v-5.983c0-.79-.175-1.355-.467-1.694q-.437-.508-1.4-.508c-.642 0-.7.057-.992.17-.35.113-.642.282-.933.564-.292.226-.467.508-.642.79a2.7 2.7 0 0 0-.234 1.073v5.587h-1.983V36.25zm10.91-3.63h2.042v1.975h-2.042zm.058 3.612h1.984v9.538h-1.984zm8.347 7.456 2.742-7.507h2.159l-3.851 9.539h-2.1l-3.851-9.54h2.217zm5.596-2.654c0-1.073.175-2.032.583-2.823.409-.79.934-1.354 1.634-1.75.7-.394 1.517-.62 2.451-.62.933 0 1.867.226 2.509.62.642.396 1.108.96 1.458 1.637.292.678.467 1.524.467 2.427v.847h-7.118c0 .96.292 1.75.758 2.258.467.564 1.109.79 1.984.79s1.284-.113 1.634-.395.583-.677.758-1.129h1.867c-.175.96-.583 1.693-1.283 2.201-.7.565-1.692.79-2.976.79s-2.684-.451-3.501-1.298c-.817-.903-1.225-2.088-1.225-3.668zm2.392-2.315c-.175.395-.291.904-.35 1.411h5.135c0-.903-.234-1.58-.584-2.088-.35-.451-.992-.734-1.867-.734s-1.108.113-1.459.395a2.1 2.1 0 0 0-.816 1.016zm8.873-2.494h1.926v1.411c.35-.508.817-.903 1.283-1.185.467-.282.992-.395 1.576-.395h.467c.116 0 .291 0 .408.056l-.233 1.75c-.117 0-.234 0-.409-.056-.175-.057-.291 0-.408 0-.292 0-.584 0-.934.169-.291.113-.583.282-.875.451-.292.226-.467.508-.642.79s-.233.621-.233 1.017v5.53h-1.984v-9.538zm13.132 6.957c0-.338-.116-.677-.291-.903s-.642-.395-1.284-.508l-1.225-.169c-1.109-.17-1.984-.508-2.568-.903-.583-.395-.875-1.072-.875-1.92 0-.846.175-1.128.525-1.523s.817-.734 1.401-.96c.583-.225 1.283-.338 2.042-.338s1.692.113 2.275.338c.584.226.992.565 1.284.96s.467.847.584 1.355l-1.809.225c-.175-.451-.409-.846-.7-1.072q-.438-.339-1.576-.339c-.758 0-1.342.113-1.692.395-.292.283-.467.565-.467.904 0 .338.117.677.35.846.234.226.701.339 1.401.452l1.342.225c1.167.17 2.042.508 2.567.96s.759 1.129.759 1.975-.35 1.524-.992 2.032-1.692.79-3.034.79-1.576-.112-2.218-.282c-.641-.225-1.167-.508-1.575-1.016-.408-.451-.642-1.072-.7-1.806h1.925c.117.621.35 1.016.759 1.298.408.226.992.395 1.75.395.759 0 1.342-.112 1.634-.395.292-.225.467-.564.467-1.016zm3.955-10.562h2.042v1.975h-2.042zm.058 3.612h1.984v9.538h-1.984zm5.085 6.326v-4.797h-1.517v-1.524h1.517v-2.54h1.983v2.54h2.509v1.524h-2.509v5.135c0 .452.117.79.292 1.073.234.282.525.395.934.395h.7c.233 0 .408-.057.583-.113l.35 1.467c-.291.113-.583.17-.875.226s-.7.113-1.108.113c-.759 0-1.342-.113-1.751-.395a1.95 1.95 0 0 1-.817-1.185c-.175-.508-.233-1.13-.233-1.806zm6.587 5.136c.409.113.759.17 1.109.17s.7-.114.934-.34c.233-.225.466-.62.7-1.24l.35-.904-4.143-9.2h2.217l2.859 7.056 2.626-7.055h2.101l-4.201 10.271c-.292.678-.526 1.186-.817 1.637-.292.451-.584.79-.934 1.016q-.525.339-1.4.338c-.584 0-.584 0-.875-.056-.292 0-.526-.113-.876-.226l.35-1.523zm14.018-6.703c0-1.016.175-1.919.584-2.709.408-.734.933-1.355 1.692-1.75.7-.395 1.575-.62 2.567-.62q2.275 0 3.501 1.354c.875.903 1.284 2.145 1.284 3.669s-.409 2.822-1.284 3.725-2.042 1.355-3.559 1.355-2.684-.452-3.559-1.355c-.817-.903-1.284-2.145-1.284-3.669zm2.043 0c0 1.016.233 1.863.641 2.54.409.621 1.109.96 2.101.96s1.692-.339 2.1-.96c.409-.62.642-1.467.642-2.54s-.233-1.862-.642-2.483c-.408-.62-1.167-.96-2.1-.96-.934 0-1.634.34-2.101.96-.408.62-.641 1.467-.641 2.483m10.37-3.164h-1.517v-1.524h1.517v-.733c0-1.073.292-1.806.934-2.314.583-.508 1.342-.734 2.217-.734h.875c.292 0 .584.113.934.17l-.292 1.467a2.1 2.1 0 0 0-.584-.113h-.525c-.466 0-.817.113-1.108.338s-.467.621-.467 1.186v.733h2.451v1.524h-2.451v7.901h-1.984zm-95.802 24.142h-5.602l-1.283 3.443h-2.159l5.135-13.094h2.333l5.135 13.094h-2.217l-1.284-3.443zm-2.801-7.619-2.217 5.87h4.376l-2.217-5.87zm7.82 1.538h1.926v1.411a4.2 4.2 0 0 1 1.283-1.185c.467-.282.992-.395 1.576-.395h.466c.117 0 .292 0 .409.056l-.233 1.75c-.117 0-.234 0-.409-.056-.175-.057-.292 0-.408 0-.292 0-.584 0-.934.169-.35.17-.583.282-.875.451-.292.226-.467.508-.642.79s-.233.621-.233 1.017v5.53h-1.984v-9.538zm8.119 6.319v-4.797h-1.517v-1.524h1.517v-2.54h1.984v2.54h2.509v1.524h-2.509v5.136c0 .451.117.79.292 1.072.233.282.525.395.933.395h.7c.234 0 .409-.056.584-.113l.35 1.468a5 5 0 0 1-.875.225 6 6 0 0 1-1.109.113c-.758 0-1.342-.113-1.75-.395a1.94 1.94 0 0 1-.817-1.185c-.175-.508-.234-1.129-.234-1.806zm6.239-9.938h2.042v1.976h-2.042zm.058 3.612h1.984v9.538h-1.984zm5.064 1.576h-1.517V55.99h1.517v-.734c0-1.072.292-1.806.934-2.314.583-.508 1.342-.734 2.217-.734h.875c.292 0 .584.113.934.17l-.292 1.467a2.1 2.1 0 0 0-.583-.113h-.525c-.467 0-.817.113-1.109.339s-.467.62-.467 1.185v.734h2.451v1.523h-2.451v7.902h-1.984zm6.01-5.192h2.042v1.976h-2.042zm.058 3.612h1.984v9.538h-1.984zm4.159 4.796c0-1.016.175-1.92.583-2.71.35-.79.934-1.354 1.634-1.806.7-.395 1.575-.62 2.567-.62s2.159.282 2.801.846c.7.565 1.108 1.355 1.283 2.37l-1.925.34c-.117-.565-.35-1.073-.642-1.412s-.817-.564-1.517-.564-1.167.17-1.517.451c-.408.283-.7.734-.875 1.242a5.5 5.5 0 0 0-.292 1.75c0 .62.058 1.242.233 1.806.175.508.467.96.817 1.242.409.282.875.451 1.517.451s1.284-.169 1.634-.564c.35-.339.583-.847.7-1.468h1.926c-.175 1.13-.584 1.976-1.284 2.653-.7.621-1.692.96-3.034.96s-2.684-.452-3.443-1.355c-.816-.903-1.166-2.145-1.166-3.669zm10.964-8.404h2.043v1.976h-2.043zm.059 3.612h1.984v9.538h-1.984zm3.856 6.881c0-.621.117-1.185.409-1.58.291-.396.641-.734 1.108-.96a6.4 6.4 0 0 1 1.576-.508 10 10 0 0 1 1.867-.17h1.633v-.395c0-.733-.175-1.298-.466-1.58q-.526-.508-1.576-.508t-1.575.339c-.35.226-.584.564-.642.96l-1.809-.17c.175-.903.584-1.524 1.284-1.976.7-.395 1.634-.62 2.801-.62s2.45.338 3.034.96q.875.93.875 2.708v6.153h-1.926v-1.242c-.35.395-.816.734-1.342 1.016-.525.282-1.167.395-1.925.395-.759 0-1.809-.226-2.451-.734-.641-.451-.933-1.185-.933-2.145zm1.984-.057c0 .452.117.79.408 1.073.292.282.701.395 1.342.395s1.576-.226 2.101-.621.817-1.016.817-1.806v-.96h-1.517q-1.226.086-1.926.339c-.467.17-.758.339-.933.62a1.9 1.9 0 0 0-.292 1.017zm8.989-10.436h1.984V65.42h-1.984zm8.862 0h2.101V65.42h-2.101zm4.783 3.606h1.926v1.355a4.2 4.2 0 0 1 1.575-1.298 3.95 3.95 0 0 1 1.75-.395c1.109 0 1.926.282 2.451.903.525.62.817 1.467.817 2.596v6.322h-1.984V59.43c0-.79-.175-1.355-.467-1.694q-.438-.508-1.4-.508c-.642 0-.7.057-.992.17-.35.113-.642.282-.934.564-.291.226-.466.508-.641.79a2.7 2.7 0 0 0-.234 1.073v5.587H192.9v-9.538zm11.614 6.332v-4.797h-1.517v-1.524h1.517v-2.54h1.984v2.54h2.509v1.524h-2.509v5.136c0 .451.117.79.292 1.072.233.282.525.395.933.395h.701c.233 0 .408-.056.583-.113l.35 1.468a5 5 0 0 1-.875.225 6 6 0 0 1-1.109.113c-.758 0-1.342-.113-1.75-.395a1.94 1.94 0 0 1-.817-1.185c-.175-.508-.233-1.129-.233-1.806zm5.95-1.478c0-1.072.175-2.032.584-2.822.408-.79.933-1.355 1.633-1.75s1.517-.62 2.451-.62c.933 0 1.867.225 2.509.62s1.108.96 1.458 1.637c.292.678.467 1.524.467 2.427v.847h-7.118c0 .96.292 1.75.758 2.258.467.564 1.109.79 1.984.79s1.284-.113 1.634-.395.583-.678.758-1.13h1.868c-.176.96-.584 1.694-1.284 2.202-.7.564-1.692.79-2.976.79-1.283 0-2.684-.451-3.501-1.298-.817-.903-1.225-2.088-1.225-3.669zm2.334-2.37c-.175.395-.292.903-.35 1.41h5.134c0-.902-.233-1.58-.583-2.088-.35-.451-.992-.733-1.867-.733s-1.109.113-1.459.395c-.35.225-.642.564-.817 1.016zm8.861-6.09h1.984V65.42h-1.984zm4.486 0h1.984V65.42h-1.984zm4.498 0h2.042v1.976h-2.042zm0 3.612h1.984v9.538h-1.984zm11.455 8.685v-.959c-.35.508-.817.847-1.342 1.129s-1.108.395-1.808.395c-.701 0-1.693-.226-2.334-.621-.642-.395-1.051-1.016-1.342-1.693a6.4 6.4 0 0 1-.467-2.427c0-.903.175-1.806.525-2.54a3.97 3.97 0 0 1 1.517-1.693c.642-.395 1.4-.62 2.276-.62s1.05.112 1.575.338.992.621 1.4 1.129v-1.185h1.926v8.07c0 1.072-.117 2.032-.35 2.766-.234.79-.701 1.41-1.342 1.806-.642.395-1.576.62-2.801.62s-2.334-.225-3.092-.733c-.759-.452-1.167-1.242-1.284-2.258h1.925c.117.508.35.903.759 1.129.35.226.933.339 1.692.339s1.634-.283 1.984-.79.525-1.299.525-2.314zm-.583-6.546c-.409-.565-1.109-.847-1.984-.847s-1.4.226-1.867.734c-.525.508-.759 1.354-.759 2.483s.117 1.411.35 1.863a2.7 2.7 0 0 0 .934 1.015q.612.339 1.225.339c.934 0 1.634-.282 2.042-.846q.7-.847.701-2.202v-.282c0-.903-.234-1.693-.642-2.257m4.718 2.709c0-1.072.175-2.032.583-2.822.409-.79.934-1.355 1.634-1.75s1.517-.62 2.45-.62 1.868.225 2.509.62c.642.395 1.109.96 1.459 1.637.292.678.467 1.524.467 2.427v.847h-7.119c0 .96.292 1.75.759 2.258.467.564 1.109.79 1.984.79s1.283-.113 1.633-.395.584-.678.759-1.13h1.867c-.175.96-.583 1.694-1.284 2.202-.7.564-1.692.79-2.975.79s-2.684-.451-3.501-1.298c-.817-.903-1.225-2.088-1.225-3.669zm2.392-2.37c-.175.395-.292.903-.35 1.41h5.134c0-.902-.233-1.58-.583-2.088-.35-.451-.992-.733-1.867-.733s-1.109.113-1.459.395c-.35.225-.642.564-.817 1.016zm8.865-2.484h1.925v1.355a4.2 4.2 0 0 1 1.576-1.298 3.95 3.95 0 0 1 1.75-.395c1.109 0 1.926.282 2.451.903.525.62.817 1.467.817 2.596v6.322h-1.984V59.43c0-.79-.175-1.355-.467-1.694q-.437-.508-1.4-.508c-.642 0-.7.057-.992.17-.35.113-.642.282-.934.564-.291.226-.467.508-.642.79a2.7 2.7 0 0 0-.233 1.073v5.587h-1.984v-9.538zm10.618 4.798c0-1.016.175-1.92.583-2.71.35-.79.934-1.354 1.634-1.806.7-.395 1.575-.62 2.567-.62s2.159.282 2.801.846c.7.565 1.108 1.355 1.283 2.37l-1.925.34c-.117-.565-.35-1.073-.642-1.412s-.817-.564-1.517-.564-1.167.17-1.517.451c-.408.283-.7.734-.875 1.242a5.5 5.5 0 0 0-.292 1.75c0 .62.058 1.242.233 1.806.176.508.467.96.817 1.242.409.282.876.451 1.517.451.642 0 1.284-.169 1.634-.564.35-.339.584-.847.7-1.468h1.926c-.175 1.13-.584 1.976-1.284 2.653-.7.621-1.692.96-3.034.96s-2.684-.452-3.442-1.355c-.817-.903-1.167-2.145-1.167-3.669zm10.672.056c0-1.072.176-2.032.584-2.822s.933-1.355 1.634-1.75 1.517-.62 2.45-.62 1.867.225 2.509.62 1.109.96 1.459 1.637c.292.678.467 1.524.467 2.427v.847h-7.119c0 .96.292 1.75.759 2.258.467.564 1.108.79 1.984.79s1.283-.113 1.633-.395.584-.678.759-1.13h1.867c-.175.96-.584 1.694-1.284 2.202-.7.564-1.692.79-2.975.79s-2.684-.451-3.501-1.298c-.817-.903-1.226-2.088-1.226-3.669zm2.334-2.37c-.175.395-.291.903-.35 1.41h5.135c0-.902-.234-1.58-.584-2.088-.35-.451-.992-.733-1.867-.733s-1.108.113-1.458.395a2.1 2.1 0 0 0-.817 1.016z"/></svg>