<svg width="80" height="80" viewBox="0 -9 97 97" fill="none" xmlns="http://www.w3.org/2000/svg">
<path d="M65.5854 50.9095C63.3099 48.7085 59.809 48.5392 57.3585 50.2887L53.6826 46.7332C54.5578 45.6609 55.0829 44.3064 55.0829 42.7827C55.0829 39.1707 52.0489 36.236 48.2563 36.236C44.4637 36.236 41.4297 39.1707 41.4297 42.7827C41.4297 46.3946 44.4637 49.3858 48.2563 49.3858C52.0489 49.3858 51.1737 48.8778 52.3406 48.0313L56.0165 51.5868C54.3828 53.6749 54.3828 56.5532 55.9581 58.6978L52.2823 62.084C51.1737 61.2939 49.8317 60.8424 48.2563 60.8424C44.7555 60.8424 41.8965 63.2692 41.8965 66.2603C41.8965 69.2515 44.7555 71.6782 48.2563 71.6782C51.7571 71.6782 54.6161 69.2515 54.6161 66.2603C54.6161 63.2692 54.2661 64.2286 53.6242 63.3821L57.2418 60.0523C59.7507 61.9147 63.3099 61.8018 65.5854 59.6008C68.036 57.2305 68.036 53.3363 65.5854 50.9095Z" fill="#154677"/>
<path d="M40.6735 27.042L44.5828 23.6558C45.633 24.2766 46.8583 24.6716 48.2587 24.6716C49.659 24.6716 50.8843 24.2766 51.9345 23.6558L55.8438 27.042C54.2684 29.3559 54.6185 32.5728 56.719 34.6609C58.8778 36.7491 62.1453 37.0313 64.5375 35.5639L67.98 39.2887C67.3382 40.3046 66.9298 41.5462 66.9298 42.8443C66.9298 46.2305 69.4387 48.9959 72.5311 48.9959C75.6235 48.9959 78.1324 46.2305 78.1324 42.8443C78.1324 39.4581 75.6235 36.6927 72.5311 36.6927C69.4387 36.6927 70.1972 37.1442 69.2636 37.8778L65.9962 34.3223C68.0383 31.952 67.8633 28.4529 65.5294 26.1954C63.1955 23.938 59.578 23.8251 57.1274 25.7439L53.3932 22.4706C54.1517 21.5676 54.6185 20.4953 54.6185 19.3101C54.6185 16.319 51.7595 13.8922 48.2587 13.8922C44.7578 13.8922 41.8988 16.319 41.8988 19.3101C41.8988 22.3013 42.3656 21.6241 43.1241 22.4706L39.3899 25.7439C37.1727 23.938 34.022 23.8251 31.6881 25.4053L29.2958 22.9785C30.6962 21.229 30.9296 19.028 30.0544 17.2784L33.2635 14.6259C35.1889 16.0933 38.1646 15.9239 40.3235 14.118C42.7157 12.0862 43.1825 8.75648 41.3154 6.72476C40.3818 5.65246 39.0398 5.14453 37.5811 5.14453C36.1225 5.14453 34.7221 5.65246 33.5552 6.66832C31.4547 8.47429 30.8129 11.2397 31.9798 13.2714L28.8291 15.8675C26.7869 14.2308 23.5778 14.5695 21.419 16.6576C19.2018 18.8587 19.0268 22.2449 21.0689 24.1073C22.8777 25.8004 25.7367 25.8004 27.8955 24.2766L30.2877 26.7034C28.3623 29.1301 28.5373 32.5728 30.8712 34.8302C33.3801 37.257 37.4061 37.257 39.8567 34.8867C42.0155 32.7985 42.2489 29.5252 40.6152 27.1549L40.6735 27.042Z" fill="#154677"/>
<path d="M23.864 36.6898C20.7716 36.6898 18.2627 39.4552 18.2627 42.8414C18.2627 46.2276 18.6711 45.4939 19.3713 46.5098L16.804 49.4445C15.8704 48.7672 14.7618 48.3722 13.5949 48.4851C12.7197 48.5415 11.9028 48.8801 11.2027 49.388L8.05191 45.7197C8.46034 44.8731 8.69372 43.9137 8.69372 42.8978C8.69372 41.882 8.46034 40.8661 7.99356 40.0195L11.0276 36.4076C11.7278 36.8591 12.4863 37.1977 13.3615 37.2541C16.1622 37.4799 18.6711 35.1095 18.9045 32.062C19.1379 28.9579 17.0374 26.3054 14.2367 26.1361C13.3615 26.0797 12.5446 26.249 11.8445 26.644L10.0357 23.7093C10.2108 23.54 10.3274 23.3143 10.5025 23.145C11.9612 20.9439 11.9028 18.5171 10.3858 17.7835C10.0941 17.6142 9.68563 17.5577 9.33554 17.5577C7.87686 17.5577 6.12645 18.63 4.95951 20.3796C3.50083 22.5806 3.55918 25.0074 5.0762 25.741C6.0681 26.249 7.41009 25.9104 8.63538 25.0638L10.3274 27.8292C9.45224 28.7322 8.86877 30.0302 8.75207 31.4412C8.63538 32.8521 9.04381 34.1501 9.74397 35.2224L6.88496 38.6086C6.1848 37.9878 5.30959 37.5928 4.37604 37.5928C1.9838 37.5928 0 40.0195 0 43.0107C0 46.0018 1.9838 48.4286 4.37604 48.4286C6.76827 48.4286 6.24314 48.0336 6.94331 47.4128L9.97736 50.8554C9.2772 51.8713 8.92711 53.1693 8.98546 54.5802C9.21885 57.6842 11.7278 59.9981 14.5284 59.7724C17.3291 59.5467 19.4296 56.8941 19.1962 53.7901C19.1379 52.7178 18.7294 51.7584 18.2043 50.9118L20.7716 48.0336C21.6468 48.7108 22.7554 49.1059 23.9223 49.1059C27.0147 49.1059 29.5237 46.3405 29.5237 42.9543C29.5237 39.568 27.0147 36.8026 23.9223 36.8026L23.864 36.6898Z" fill="#154677"/>
<path d="M92.2996 37.4174C91.366 37.4174 90.4908 37.8689 89.7323 38.5461L86.5815 34.9906C87.2817 33.9748 87.6318 32.6767 87.5151 31.3222C87.3984 29.9678 86.8733 28.839 86.1148 27.936L87.6318 25.735C88.9154 26.7509 90.3741 27.0895 91.4243 26.4687C92.883 25.5657 92.883 22.9696 91.4243 20.7121C90.3158 18.9626 88.6237 17.9467 87.2817 17.9467C85.9397 17.9467 86.4648 18.0596 86.1148 18.2854C84.6561 19.1883 84.6561 21.728 86.1148 24.0419C86.1731 24.1548 86.2898 24.2676 86.3481 24.3805L84.7144 26.8073C83.8976 26.3558 83.0224 26.1301 82.0888 26.1865C79.2881 26.4122 77.1876 29.0648 77.421 32.1688C77.6544 35.2728 80.1633 37.5867 82.964 37.361C83.8976 37.3045 84.7144 36.9659 85.4146 36.458L88.7987 40.2957C88.4486 41.0858 88.2153 41.9888 88.2153 43.0046C88.2153 45.9958 90.0824 48.4226 92.4162 48.4226C94.7501 48.4226 96.6172 45.9958 96.6172 43.0046C96.6172 40.0135 94.7501 37.5867 92.4162 37.5867L92.2996 37.4174Z" fill="#154677"/>
<path d="M19.2008 13.4321C20.6011 12.1905 21.3596 10.5538 21.3013 9.25578L24.9188 6.71613C25.9107 7.05475 27.3111 6.99832 28.7697 6.32107C31.162 5.24878 32.7373 3.10418 32.2706 1.52395C31.9788 0.508091 30.9286 0.000160217 29.6449 0.000160217C28.3613 0.000160217 27.9529 0.16947 27.0777 0.564528C24.6854 1.63683 23.1101 3.72498 23.5768 5.30521L20.4844 7.50625C19.2008 6.54682 16.8086 6.99831 14.9415 8.69142C12.8993 10.4974 12.1991 12.9806 13.4244 14.2787C14.5914 15.5767 17.217 15.1252 19.2591 13.3192L19.2008 13.4321Z" fill="#154677"/>
<path d="M90.5579 59.9338C89.6244 59.5387 88.3991 59.8209 87.2905 60.611L86.0068 58.2407C86.9987 57.2812 87.6406 55.9832 87.8156 54.403C88.049 51.2989 85.9485 48.6464 83.1478 48.4207C83.0311 48.4207 82.9144 48.4207 82.7977 48.4207C80.1138 48.4207 77.8382 50.6781 77.6048 53.6693C77.4882 54.9109 77.8382 56.0961 78.3634 57.1119L74.6291 60.8932C72.587 59.708 69.6696 60.1031 67.7442 62.0784C65.527 64.2794 65.3519 67.6656 67.3941 69.528C69.0862 71.1082 71.7118 71.1647 73.8123 69.9231L76.5546 73.3093C74.9792 75.0588 74.3958 77.0341 75.271 78.0499C75.621 78.445 76.0878 78.6143 76.6713 78.6143C77.8382 78.6143 79.2969 77.9371 80.6389 76.7519C82.6227 74.9459 83.4979 72.5191 82.506 71.4469C81.6308 70.4874 79.7053 70.826 77.8966 72.1241L75.2126 68.8508C77.0214 66.8755 77.3131 64.1665 75.9711 62.3041L79.5303 58.6922C80.2888 59.313 81.164 59.708 82.2143 59.7645C82.9728 59.7645 83.7313 59.6516 84.3731 59.4258L85.7734 62.0784C85.5401 62.3041 85.365 62.5863 85.19 62.8685C83.7896 65.1259 83.9063 67.4963 85.4234 68.1735C86.9404 68.8508 89.3326 67.6092 90.733 65.4081C92.1333 63.1507 92.0166 60.7803 90.4996 60.1031L90.5579 59.9338Z" fill="#154677"/>
</svg>
