<svg xmlns="http://www.w3.org/2000/svg" width="793.701" height="1122.52" fill-rule="evenodd" viewBox="167 146 285 285"><path d="M309.59 146.618c-78.16 0-141.749 63.59-141.749 141.751 0 78.162 63.589 141.751 141.749 141.751 78.162 0 141.75-63.589 141.75-141.751 0-78.161-63.588-141.751-141.75-141.751m138.284 141.751c0 76.251-62.033 138.286-138.284 138.286S171.305 364.62 171.305 288.369s62.034-138.286 138.285-138.286 138.284 62.035 138.284 138.286" style="stroke:none;fill:#a50000"/><path d="M309.59 151.905c-75.246 0-136.466 61.218-136.466 136.465s61.22 136.465 136.466 136.465 136.466-61.218 136.466-136.465-61.219-136.465-136.466-136.465M444.757 288.37c0 74.531-60.636 135.168-135.167 135.168S174.425 362.901 174.425 288.37s60.634-135.166 135.165-135.166 135.167 60.634 135.167 135.166" style="stroke:none;fill:#a50000"/><path d="M266.498 166.525c-.193 5.097 4.536 2.421 7.548 2.188 1.056-.08 10.574-3.795 9.239.116-.828 2.431-3.95 1.629-5.881 1.85-2.308.267-4.913 1.103-7.025 2.072-2.066.945-.527 2.275 1.125 1.861a14.5 14.5 0 0 1 4.525-.435c3.75.22 7.705 1.307 10.793 3.496 1.572 1.116 6.06 5.558 3.232 6.902-1.71.812-4.061-1.569-5.281-2.634-1.967-1.715-3.273-3.234-5.861-4.049-4.666-1.471-9.428-.559-13.13 2.645-3.369 2.92-5.848 6.241-6.635 10.652-.325 1.823-1.114 8.371-4.121 6.2-3.319-2.397 1.413-10.187 2.285-11.572.434-.692 1.263-1.611 2.151-2.576.575-.625 1.873-2.147 2.86-3.276.536-.616 2.299-2.289 3.003-2.846 1.041-.821 1.475-2.287-.462-2.199-1.83.079-2.638 1.167-4.869 2.106-2.228.942-7.955 6.214-9.043 3.091-1.345-3.867 7.215-5.423 9.534-6.344.537-.214 1.266-.466 1.835-.68.454-.171 1.055-.573 1.133-.677.474-.628.819-1.544.632-2.001-.472-1.145-1.319-2.565-1.321-3.761.938-.853 2.737-.916 3.734-.129m-7.559 156.488-10.019-5.361-3.325 5.8c2.399 1.638 3.56 4.118 3.884 6.984l17.867 9.563 5.47-9.559-8.947-4.785 27.662-51.501c.126-.207.074-.423-.184-.569l-4.231-2.259c-.293-.137-.48-.062-.6.155l-27.577 51.534z" style="stroke:none;fill:#a50000"/><path d="M275.466 327.029h72.666c1.478 0 2.685 1.216 2.685 2.702v16.707c0 1.489-1.207 2.705-2.685 2.705h-72.666a2.705 2.705 0 0 1-2.692-2.705v-16.707a2.7 2.7 0 0 1 2.692-2.703m.893 2.352h70.632c.805 0 1.463.66 1.463 1.472v14.465c0 .809-.658 1.474-1.463 1.474h-70.285a1.477 1.477 0 0 1-1.468-1.474v-14.82c0-.612.505-1.115 1.115-1.115zm-5.763-79.683h24.683v-5.39h-24.683zm0 8.199h24.683v-5.39h-24.683zm0 8.202h24.683v-5.39h-24.683zm94.881 30.582h1.537c.43 0 .776.287.776.618v1.777a2.55 2.55 0 0 0 1.316-2.222v-7.366c0-.953-.533-1.792-1.316-2.226v1.448c0 .335-.35.623-.776.623h-1.537c-.425 0-.777-.283-.777-.623v-1.448a2.54 2.54 0 0 0-1.312 2.226v7.366a2.55 2.55 0 0 0 1.312 2.222v-1.777c0-.337.346-.618.777-.618m-100.006-21.231c-.871-.012-1.693.053-2.139.754-1.336 2.113-1.036 7.932-1.036 10.255h-6.347l-1.582-1.551v-10.593c1.535-2.48 5.4-4.325 12.529-4.317l15.423.016c.485 0 .667.412.525.675l-8.461 15.752-8.912.018v-11.014zm22.008 13.833h22.517c.763 0 1.383.626 1.383 1.381v1.407c0 .754-.627 1.382-1.383 1.382h-24.213c1.276 1.028 2.623 3.134 3.286 4.428h1.858s3.509 2.073 3.1 4.777c-.414 2.695-1.244 3.313-3.719 5.389-2.476 2.079-7.023 6.645-8.878 9.137-1.86 2.49-1.86 6.224.205 6.224h29.732v.005h29.939c.293 0 .539-.073.75-.211 1.282-.818 1.057-3.879-.541-6.018-1.861-2.489-6.401-7.058-8.876-9.137-2.479-2.076-3.304-2.696-3.721-5.389-.164-1.094.311-2.08.938-2.875l.04-.055.01-.007c.013-.021.026-.03.036-.047.002 0 .005-.008.005-.013a.3.3 0 0 1 .042-.043q-.001-.011.004-.012l.047-.049c.002 0 .002-.007.002-.007.019-.015.03-.032.044-.053h.005c.019-.017.035-.04.054-.056v-.005c.02-.019.032-.043.054-.06l.067-.063c.007-.013.024-.028.034-.046a9.2 9.2 0 0 1 1.724-1.386h1.858c1.009-2.363 2.693-4.281 4.344-5.727 2.412-2.11 4.739-3.208 4.739-3.208h5.372c4.476-5.137 10.315-6.916 16.369-7.941v3.154c-2.106.195-3.775 1.981-3.775 4.131v9.836c0 2.159 1.669 3.942 3.775 4.135v5.487a4.164 4.164 0 0 0-3.775 4.132v9.631a4.154 4.154 0 0 0 4.148 4.149h2.348a4.16 4.16 0 0 0 4.149-4.149v-9.631a4.166 4.166 0 0 0-3.774-4.132v-5.487a4.167 4.167 0 0 0 3.774-4.135v-9.836c0-2.15-1.671-3.937-3.774-4.131v-3.627c.742-.101 1.476-.281 2.222-.379 7.76-1.286 7.722-4.177 7.722-3.937v-6.156h-85.178l3.518 1.839c.291.126.48.466.253.834l-8.856 16.545zm80.315 21.571v1.342c0 .343-.35.625-.776.625h-1.541c-.425 0-.777-.282-.777-.625v-1.342a2.54 2.54 0 0 0-1.312 2.223v7.161a2.55 2.55 0 0 0 2.539 2.543h.642a2.553 2.553 0 0 0 2.539-2.543v-7.161c0-.954-.529-1.786-1.314-2.223m-77.425 3.979h41.86c.758 0 1.387.625 1.387 1.383v1.406c0 .76-.629 1.384-1.387 1.384h-41.86a1.39 1.39 0 0 1-1.384-1.384v-1.406c0-.758.622-1.383 1.384-1.383m7.354-9.04h27.154c.761 0 1.382.63 1.382 1.389v1.402c0 .764-.621 1.385-1.382 1.385h-27.154c-.756 0-1.39-.621-1.39-1.385v-1.402c0-.759.624-1.389 1.39-1.389m1.037-8.513h25.081c.756 0 1.383.628 1.383 1.382v1.406c0 .757-.631 1.383-1.383 1.383H298.76a1.39 1.39 0 0 1-1.383-1.383v-1.406c0-.76.621-1.382 1.383-1.382m21.784-7.997h11.248c.763 0 1.383.626 1.383 1.381v1.407c0 .754-.631 1.382-1.383 1.382h-11.248a1.405 1.405 0 0 1-1.381-1.382v-1.407c0-.764.623-1.381 1.381-1.381m-23.274-39.585h4.254v-5.39h-4.254z" style="stroke:none;fill:#a50000"/><path d="M273.82 239.392c7.544-.412 15.707-2.949 22.819-6.557l2.217 4.9c-7.833 3.764-16.648 6.281-23.747 6.637zm28.557-9.306-3.864 1.863 2.213 4.839 3.878-1.881-2.227-4.817zm-5.107 27.81h4.254v-5.39h-4.254zm0 8.202h4.254v-5.39h-4.254zm30.083-29.69 7.804-4.305 16.418 29.788-7.804 4.3zm4.966 4.125 3.504-1.957.947 1.65-3.504 1.958zm1.998 3.587 3.51-1.954.948 1.646-3.513 1.954z" style="stroke:none;fill:#a50000"/><path d="M318.165 228.232h9.382v37.926h-9.382zm-13.577-3.5h10.5v41.43h-10.5zm3.241 5.354h4.018v1.872h-4.018zm0 4.112h4.018v1.873h-4.018zm0 4.107h4.018v1.874h-4.018zm0 4.109h4.018v1.873h-4.018zm13.017-8.216h4.021v1.873h-4.021zm0 4.107h4.021v1.874h-4.021zm0 4.109h4.021v1.873h-4.021z" style="stroke:none;fill:#a50000"/><path d="M309.563 369.004c-44.424 0-80.595-36.192-80.595-80.585 0-44.442 36.171-80.636 80.595-80.636 44.426 0 80.65 36.194 80.65 80.636 0 44.393-36.224 80.585-80.65 80.585m98.208-83.236-7.702-.998c-.302-.05-.502-.151-.701-.401-.053-1.249-.1-2.499-.199-3.7q.15-.375.598-.448l7.504-2.001c.102-.051.25-.1.25-.4-.099-.651-.148-1.4-.298-2.249v-.099a93 93 0 0 0-.301-2.202c-.049-.3-.199-.3-.352-.3h-7.755c-.298 0-.548-.1-.699-.3-.25-1.199-.5-2.399-.752-3.648.104-.25.252-.399.551-.5l7.206-2.999c.1-.049.25-.1.15-.4-.15-.651-.3-1.35-.55-2.149v-.101c-.25-.8-.452-1.549-.602-2.2-.1-.248-.248-.248-.4-.248l-7.704 1.048c-.299.051-.498 0-.75-.199a41 41 0 0 0-1.201-3.501c.1-.299.25-.5.5-.648l6.755-3.85c.101-.051.201-.15.101-.401-.2-.649-.503-1.349-.8-2.098l-.053-.05v-.05c-.349-.801-.648-1.452-.9-2.101-.1-.249-.25-.2-.399-.2l-7.504 2.051c-.301.099-.553.05-.803-.151-.5-1.1-1.051-2.15-1.598-3.199 0-.351.147-.55.401-.751l6.153-4.697c.098-.102.199-.203.098-.451-.348-.6-.7-1.251-1.1-1.951 0 0 0-.049-.049-.049v-.048c-.449-.752-.802-1.403-1.151-1.951-.15-.25-.301-.2-.451-.15l-7.155 2.999c-.302.15-.55.1-.85-.051-.653-1-1.301-1.949-1.952-2.898-.101-.352 0-.6.25-.85l5.503-5.498c.102-.101.202-.201.051-.451-.398-.5-.851-1.101-1.349-1.799h-.051v-.05h-.049c-.502-.699-.951-1.25-1.352-1.799-.201-.201-.351-.152-.452-.051l-6.703 3.848c-.303.201-.599.201-.901.051-.752-.85-1.502-1.75-2.301-2.598a.87.87 0 0 1 .15-.851l4.755-6.149c.098-.1.149-.25-.052-.452-.45-.498-.95-1.047-1.551-1.598v-.05h-.049v-.049h-.051c-.552-.6-1.1-1.1-1.6-1.552-.202-.2-.351-.098-.452-.049l-6.15 4.75a.89.89 0 0 1-.855.149c-.849-.75-1.748-1.55-2.603-2.249-.145-.351-.145-.599.054-.899l3.902-6.749c.049-.101.099-.252-.1-.402-.551-.448-1.101-.898-1.801-1.398v-.05h-.051v-.051a39 39 0 0 1-1.801-1.35c-.25-.149-.348-.051-.449.05l-5.502 5.499c-.252.25-.503.351-.802.3-1-.699-1.951-1.348-2.953-1.999-.15-.25-.199-.551-.049-.851l3.002-7.148c.049-.149.1-.301-.154-.45-.547-.349-1.197-.698-1.946-1.15h-.05s0-.048-.049-.048c-.703-.401-1.354-.751-1.953-1.102-.25-.098-.35 0-.449.101l-4.703 6.149c-.203.301-.404.4-.752.4-1.05-.551-2.101-1.1-3.203-1.599-.201-.25-.248-.501-.148-.801l2.053-7.5c0-.099.046-.3-.202-.397-.652-.252-1.3-.552-2.103-.902h-.1c-.752-.349-1.45-.598-2.1-.849-.248-.1-.35.049-.401.15l-3.849 6.699c-.155.3-.354.449-.653.5a42 42 0 0 0-3.503-1.2c-.199-.201-.25-.45-.199-.751l1.052-7.699c0-.149 0-.298-.251-.349-.653-.199-1.403-.4-2.201-.6v-.05h-.1c-.801-.199-1.504-.4-2.154-.55-.299-.05-.35.049-.399.2l-3.002 7.15c-.1.298-.25.449-.501.549-1.248-.251-2.449-.5-3.65-.75-.199-.15-.301-.399-.301-.702v-7.748c0-.099 0-.299-.299-.299-.65-.15-1.402-.249-2.205-.35h-.095c-.853-.099-1.603-.199-2.255-.249-.299-.049-.35.1-.35.199l-2.051 7.499a.88.88 0 0 1-.451.649 89 89 0 0 0-3.703-.249.88.88 0 0 1-.35-.7l-1.002-7.698c-.047-.101-.098-.25-.348-.25-.352-.05-.699-.05-1.1-.05h-2.451c-.4 0-.751 0-1.102.05-.248 0-.3.149-.3.25l-1.001 7.698c-.049.3-.151.55-.399.7-1.253.051-2.454.15-3.703.249a1 1 0 0 1-.399-.649l-2.001-7.499c-.051-.099-.1-.248-.35-.199-.701.05-1.452.15-2.253.249h-.099c-.85.101-1.601.2-2.251.35-.251 0-.3.2-.3.299v7.748c.049.303-.049.552-.252.702-1.249.25-2.45.499-3.65.75-.3-.1-.45-.251-.55-.549l-2.953-7.15c-.049-.151-.151-.25-.399-.2-.652.15-1.401.351-2.201.55h-.051c-.049 0-.049 0-.049.05-.801.2-1.552.401-2.153.6-.301.051-.25.2-.25.349l1.001 7.699c.051.301 0 .55-.201.751-1.15.351-2.351.75-3.501 1.2-.249-.051-.451-.2-.601-.5l-3.901-6.699c-.049-.101-.151-.25-.401-.15-.651.251-1.301.5-2.102.849h-.099c-.751.35-1.452.65-2.052.902-.249.097-.249.298-.199.397l2 7.5c.1.3.051.551-.099.801a62 62 0 0 0-3.25 1.599.83.83 0 0 1-.752-.4l-4.654-6.149c-.099-.101-.199-.199-.449-.101-.551.351-1.251.701-1.951 1.102v.048h-.1c-.701.452-1.351.801-1.951 1.15-.201.149-.15.301-.101.45l2.951 7.148c.15.3.15.601-.049.851-.951.651-1.951 1.3-2.902 1.999-.35.051-.601-.05-.849-.3l-5.454-5.499c-.099-.101-.251-.199-.451-.05q-.825.602-1.802 1.35l-.049.051h-.051v.05c-.649.5-1.251.95-1.751 1.398-.248.15-.148.301-.099.402l3.903 6.749c.15.3.201.548.049.899-.901.699-1.75 1.499-2.601 2.249q-.527.15-.902-.149l-6.152-4.75c-.101-.049-.251-.151-.451.049-.501.452-1.001.952-1.601 1.552l-.049.049s0 .05-.051.05c-.551.551-1.101 1.1-1.551 1.598-.201.202-.099.352-.05.452l4.753 6.149c.201.249.25.549.15.851-.75.848-1.503 1.748-2.251 2.598-.351.15-.602.15-.9-.051l-6.755-3.848c-.1-.101-.249-.15-.399.051-.452.549-.902 1.1-1.402 1.799h-.051v.05q-.824 1.048-1.351 1.799c-.199.25-.099.35 0 .451l5.504 5.498c.25.25.351.498.302.85a59 59 0 0 0-2.003 2.898c-.251.151-.55.201-.849.051l-7.156-2.999c-.098-.05-.248-.1-.4.15-.351.548-.75 1.199-1.151 1.951h-.049v.097c-.451.7-.8 1.351-1.1 1.951-.151.248-.051.349.05.451l6.202 4.697c.251.201.352.4.352.751-.551 1.049-1.05 2.099-1.603 3.199-.25.201-.498.25-.799.151l-7.506-2.051c-.098 0-.249-.049-.4.2-.249.649-.548 1.3-.85 2.101h-.048v.1c-.351.749-.6 1.449-.852 2.098-.1.251.051.35.15.401l6.704 3.85c.299.148.451.349.5.648-.451 1.152-.8 2.301-1.2 3.501-.2.199-.451.25-.751.199l-7.704-1.048c-.1 0-.301 0-.351.248-.199.651-.4 1.4-.6 2.2h-.049v.101c-.201.799-.401 1.498-.551 2.149-.05.3.1.351.201.4l7.152 2.999c.301.101.452.25.552.5-.251 1.249-.501 2.449-.7 3.648-.2.252-.452.3-.75.3h-7.754c-.102 0-.251 0-.302.3-.1.65-.248 1.399-.35 2.202v.099c-.101.849-.2 1.598-.251 2.249-.048.3.102.349.202.4l7.505 2.001a.88.88 0 0 1 .649.448 90 90 0 0 0-.25 3.7c-.151.25-.35.351-.701.401l-7.705.998c-.099 0-.25.051-.25.301-.048.701-.048 1.45-.048 2.248v.151c0 .799 0 1.55.048 2.25 0 .251.151.3.25.3l7.705.999c.351.052.55.15.701.403.051 1.247.151 2.447.25 3.698-.152.249-.35.4-.649.448l-7.505 2.001c-.1.051-.25.1-.202.398.051.652.15 1.402.251 2.201v.151c.102.799.199 1.549.35 2.2 0 .298.2.298.302.298h7.754c.298 0 .55.051.75.25.199 1.251.449 2.451.7 3.703-.1.248-.251.398-.552.498l-7.152 2.998c-.151.051-.251.099-.201.4.15.6.35 1.351.551 2.151v.099h.049c.2.801.401 1.551.6 2.199.05.251.251.251.351.251l7.704-1.05c.3-.049.551 0 .751.2.35 1.2.749 2.351 1.2 3.499-.049.3-.201.5-.5.6l-6.704 3.898c-.099.051-.25.152-.15.401.252.65.501 1.349.852 2.099v.1c.35.801.649 1.45.898 2.1a.3.3 0 0 0 .4.15l7.506-1.999c.301-.098.549-.051.799.149a99 99 0 0 0 1.603 3.201c0 .349-.101.55-.401.75l-6.153 4.699c-.101.1-.201.197-.101.449.351.6.7 1.249 1.101 1.951.05 0 .05.049.05.049v.051h.049c.401.751.8 1.4 1.151 1.948.101.201.25.201.4.151l7.156-3.001c.299-.149.598-.1.849.051a59 59 0 0 0 2.003 2.9c.049.352-.052.601-.302.851l-5.504 5.499c-.099.1-.199.199 0 .451.351.498.802 1.098 1.302 1.8h.049v.047h.051c.5.7.95 1.25 1.402 1.799.15.202.299.15.399.053l6.755-3.851c.298-.199.549-.199.9-.051.748.853 1.501 1.752 2.251 2.601.1.3.051.6-.15.851l-4.753 6.147c-.049.102-.151.251.05.45.45.502.95 1.05 1.551 1.6 0 0 0 .049.051.049v.05h.049c.6.599 1.1 1.099 1.601 1.55.2.2.35.102.451.05l6.152-4.748a.87.87 0 0 1 .85-.151c.852.75 1.752 1.552 2.604 2.25.15.349.15.648-.051.899l-3.852 6.749c-.102.101-.149.251.048.451q.827.6 1.802 1.349v.051h.051v.048c.701.5 1.301.951 1.851 1.35.2.15.301.051.401-.048l5.504-5.501c.248-.248.499-.348.849-.299.951.7 1.902 1.349 2.902 2 .148.248.199.55.049.85l-3 7.148c-.051.151-.051.301.15.451.551.352 1.199.699 1.951 1.149h.048c0 .05.052.05.052.05.7.401 1.35.75 1.951 1.1.25.101.35 0 .449-.1l4.654-6.15c.201-.298.4-.4.752-.4a95 95 0 0 0 3.199 1.601c.201.25.25.5.15.8l-2 7.45c-.05.15-.05.3.199.399.6.251 1.25.549 2.052.901h.05c.049 0 .049 0 .049.049.752.3 1.451.598 2.102.798.25.102.352 0 .401-.148l3.901-6.649c.101-.3.3-.45.601-.498 1.15.448 2.3.847 3.501 1.198.201.199.252.45.201.749l-1.052 7.651c0 .149 0 .298.252.348.65.199 1.401.399 2.202.649h.1c.8.249 1.549.401 2.15.551.299.101.351-.048.401-.15l3.002-7.201c.1-.249.25-.397.5-.499 1.25.25 2.451.499 3.7.702.203.148.252.4.252.699v7.751c0 .148 0 .299.3.347.65.1 1.401.201 2.203.301h.147c.801.15 1.552.201 2.202.3.301 0 .35-.15.401-.249l2.001-7.5c.051-.299.201-.499.399-.599 1.201.1 2.45.15 3.703.199.248.201.35.4.399.701l1.001 7.698c0 .1.052.25.3.299h4.653c.25-.049.301-.199.348-.299l1.002-7.698c0-.301.151-.5.35-.701 1.251-.049 2.506-.099 3.703-.199.252.1.4.3.5.599l2.002 7.5c0 .099.102.249.35.249.652-.099 1.402-.15 2.255-.3h.095c.852-.1 1.555-.201 2.256-.301.248-.048.248-.199.248-.347v-7.751c0-.299.102-.551.301-.699a100 100 0 0 0 3.65-.702c.251.102.45.25.552.499l2.951 7.201c.049.102.151.251.399.15.65-.15 1.353-.302 2.201-.551h.101c.803-.25 1.5-.45 2.153-.649.251-.05.251-.199.251-.348l-1.052-7.651a.95.95 0 0 1 .199-.749 42 42 0 0 0 3.503-1.198c.299.048.498.198.653.498l3.849 6.649c.1.148.2.25.451.148.6-.2 1.298-.498 2.101-.798v-.049h.049q1.203-.526 2.103-.901c.248-.099.202-.249.202-.399l-2.053-7.45c-.053-.3-.053-.55.148-.8 1.102-.502 2.153-1.05 3.252-1.601.299 0 .553.102.703.4l4.753 6.15c.049.1.2.201.399.1.599-.35 1.25-.699 2.002-1.1v-.05h.05c.749-.45 1.399-.797 1.946-1.149.254-.15.203-.3.154-.451l-2.953-7.148c-.15-.3-.15-.602 0-.85 1.002-.651 2.002-1.3 2.953-2a.84.84 0 0 1 .802.299l5.502 5.501c.101.099.199.198.449.048q.825-.6 1.801-1.35v-.048h.051s0-.051.048-.051c.652-.5 1.253-.949 1.753-1.349.199-.2.149-.35.1-.451l-3.902-6.749c-.199-.251-.199-.55-.054-.899.904-.698 1.754-1.5 2.603-2.25.351-.1.603-.051.904.151l6.152 4.748c.101.052.199.15.401-.05.5-.451 1.048-.951 1.651-1.55v-.05h.049v-.049a24 24 0 0 0 1.603-1.6c.149-.199.098-.348 0-.45l-4.706-6.147a.79.79 0 0 1-.199-.851c.799-.849 1.549-1.748 2.301-2.601.302-.148.598-.148.901.051l6.703 3.851c.101.097.251.149.452-.053.401-.549.85-1.099 1.401-1.799v-.047h.051a40 40 0 0 1 1.349-1.8c.151-.252.051-.351-.051-.451l-5.503-5.499c-.25-.25-.3-.499-.25-.851a152 152 0 0 0 1.952-2.9c.3-.151.548-.2.85-.051l7.204 3.001c.101.05.252.05.402-.151.349-.548.702-1.197 1.151-1.948v-.051h.049v-.049c.4-.702.801-1.351 1.1-1.951.15-.252 0-.349-.098-.449l-6.153-4.699c-.254-.2-.401-.401-.401-.75a103 103 0 0 0 1.598-3.201c.25-.2.502-.247.803-.149l7.504 1.999c.149.051.299.051.399-.15.303-.65.601-1.299.9-2.1v-.049l.053-.051c.297-.75.6-1.449.8-2.099.1-.249 0-.35-.101-.401l-6.755-3.898q-.375-.15-.451-.6c.402-1.148.802-2.299 1.152-3.499.252-.2.451-.249.75-.2l7.704 1.05c.152 0 .3 0 .4-.251.15-.648.352-1.398.602-2.199v-.099c.25-.8.4-1.551.55-2.151.1-.301-.05-.349-.15-.4l-7.206-2.998c-.299-.1-.447-.25-.551-.498.303-1.252.502-2.452.752-3.703.151-.199.401-.25.699-.25h7.755c.153 0 .303 0 .352-.298.099-.651.199-1.401.301-2.2v-.151c.15-.799.199-1.549.298-2.201 0-.298-.148-.347-.25-.398l-7.504-2.001q-.448-.073-.598-.448c.099-1.251.146-2.451.199-3.698.199-.253.399-.351.701-.403l7.702-.999c.1 0 .25-.049.303-.3v-4.649c-.053-.25-.203-.301-.303-.301" style="stroke:none;fill:#a50000"/><path d="M302.327 341.048c0 .357-.325.656-.717.656h-7.066c-.395 0-.714-.295-.714-.656v-1.427c0-.361.319-.654.714-.654h7.066c.398 0 .717.293.717.654zm-8.381-6.056c0-.358.321-.649.716-.649h6.831c.4 0 .723.291.723.649v1.388c0 .357-.323.65-.723.65h-6.831c-.395 0-.716-.293-.716-.65zm10.7 2.973-.093-.038-.236-.089.227-.108.089-.042c.562-.273.922-.874.922-1.532v-2.118c0-.892-.82-1.675-1.751-1.675h-11.587c-.919 0-1.666.75-1.666 1.675v2.118c0 .656.359 1.255.916 1.532l.089.045.226.108-.235.088-.093.036c-.631.235-1.054.874-1.054 1.586v2.457c0 .923.694 1.674 1.547 1.674h12.21c.856 0 1.551-.751 1.551-1.674v-2.457c0-.712-.424-1.351-1.062-1.586m-18.772 5.708h-3.585v-8.528c-.009-.331-.277-.343-.406-.348-.182 0-.383.045-.574.087l-2.668.623v-2.049l2.816-.713q.186-.047.375-.1c.483-.133.982-.268 1.451-.271h2.149c.288.003.44.163.442.466zM204.41 229.364c-.882-.972.908-3.773 1.801-2.027.128 1.173-.993 2.31-1.801 2.027m18.672-13.148c-1.559.049-6.935.836-8.085 1.458-2.741 1.484-3.827 2.923-5.525 5.48-.69 1.033-1.438 2.452-2.627 1.385-.881-.788-1.739.415-2.759.111-1.105-.328-1.062-1.31-1.496-2.15-.616-1.199-2.054.109-2.869.25-.645-.446-.213-2.275-.856-2.723-2.108-.029-2.579 1.283-2.098 3.006.506 1.814-1.186 2.863-1.065 4.595.578.559 1.452.376 2.058.001.797.352 1.092 1.266 1.347 2.013.427 1.249.974.579 1.968.539 5.041-.219 1.53 6.006.861 8.442-.358 1.315-.853 3.206-.133 4.489.44.787 1.682 3.188 1.935 3.712 1.152 1.959 6.802 4.701 4.829.419-1.282-2.781-3.871-4.468-3.373-7.812.58-3.913 1.299-6.796 2.92-10.395 1.339-2.963 4.133-5.444 6.631-7.397 1.228-.962 2.508-1.761 4.123-1.784 1.621-.021 3.348.556 4.913-.125.71-.966.049-2.779-.699-3.514m-8.479 19.082-.004.028c-.163 2.143-2.084 2.232-2.301 1.537-.166-.491.949-2.932 2.047-2.305.087.051.275.395.272.487q0 .082-.008.167zm-3.922-1.062c-1.017-1.497.794-3.309 1.2-4.78.178-.243.275-.573.696-.602.422-.027.079-.043.824.41.746.452-1.705 6.472-2.72 4.972m7.63-10.533c-.108.021-.275.206-.305.278-.722 1.659.841 6.962-1.82 6.992-.924-1.467.701-4.505-1.459-5.477-1.629-.737-2.787.279-3.571 1.627-1.669 2.87-3.562 6.125-3.227 9.775.541.966 1.94.833 2.531 1.741-.375 1.167-1.857 1.474-1.426 3.27.02.077.217.309.289.337 4.419 1.772 4.378-4.085 7.564-3.644.582.475-.213 2.324.635 3.007 2.527.269 3.804-3.357 2.672-5.248-1.705-2.849-.343-3.71.488-6.469.229-1.923 2.22-3.712.566-5.731-.345-.494-2.295-.588-2.937-.458m-17.739-5.137c.619-.43.866-.402 1.213-1.141.343-.73.877-1.292 1.73-1.327 1.051 1.227-1.124 3.272.541 4.308 1.644.134 1.015-1.498 2.66-1.363 1.314 1.773-1.252 2.329-.473 4.43 2.61.873 3.398-2.87 3.33-4.698-.044-1.225-.316-3.047-1.286-3.892-1.052-.914-2.488-2.116-3.798-2.615-1.876-.714-2.994.6-3.785 2.127-.753 1.451-2.184 2.742-2.091 4.512.065 1.216 1.536-.048 1.959-.341m.505 13.567c-.062-.094-.543-.248-.685-.215-1.71.36-1.833 3.578-2.754 2.927-.923-.653.594-2.724-.478-3.799-3.105-.714-1.251 3.131-3.321 4.276-.496-.16-.851-.186-.979-.653-.129-.466 2.103-4.181 1.354-4.541-1.979-1.291-2.143.716-2.285 2.24-.054.601-.459 1.625-.535 1.752-1.157 1.995.41 3.189 2.352 3.958 1.52.602 4.772 1.596 5.947.053 1.082-1.423 2.585-4.267 1.384-5.998m161.608-56.185c-.034-.009-.22-.173-.28-.244-1.386-1.614-4.292-2.735-6.413-2.872a2 2 0 0 1-.461-.105s-.133-.091-.141-.106c-.435-.484-1.121-2.403.44-1.907 1.717.545 1.707.67 2.98 1.125 1.139.406 3.013 1.013 4.025 1.496q.056.025.109.052l.209.11-.021-.001c.179.103.349.22.507.367 1.342 1.225.87 2.564-.954 2.085m-4.854 4.546c.341-2.044 2.95.152 2.325 1.511-.034.07-.246.178-.303.163-.351-.11-.607-.338-.847-.582-.344-.347-1.186-1.014-1.175-1.092m3.181 5.943c-.438 1.261-3.817-.98-3.749-2.557.002-.063.084-.202.116-.205 1.049-.144 4.076 1.477 3.633 2.762m-2.583 5.516c-.06.081-.367.256-.459.262-1.822.077-4.639-.878-4.688-2.969-.025-1.191.896-1.905 2.005-2.043.4-.049.728.06 1.033.222.492.262 1.018.437 1.508.773q.164.108.305.227c1.187.982 1.197 2.312.296 3.528m-6.436-8.707c-.52-.236-2.391-1.228-2.164-2.011.228-.613 1.277-1.007 3.349.38.085.058.227.439.212.571-.095.824-.239 1.595-1.397 1.06m-3.738 4.916c-1.112-.7-1.948-1.92-1.685-2.5 1.144-1.922 5.204-1.626 5.222.978.01 1.541-2.444 2.211-3.537 1.522m4.431-9.576c.389-1.063 1.999-.477 2.214.435.016.073-.132.25-.206.263-.713.134-1.327.16-1.982-.446-.026-.024-.045-.197-.026-.252m-11.093 4.612c.399-.384 1.063-.851 2.272.151.062.052.221.328.23.404.481 3.568-5.043 1.994-2.502-.555m-5.418 1.974c-1.122-.485.569-6.875 2.663-5.459 2.089 1.416-1.548 5.943-2.663 5.459m30.816-12.334c-3.982-2.256-8.065-3.981-12.593-4.783-2.206-.388-4.348 4.395-2.126 5.688.883.514 4.345.367 4.216 1.841l-.002.005c-.16.922-3.548-.826-6.214.657a2.2 2.2 0 0 0-.367.244c-.797.541-1.457 1.503-2.201 2.188-.76.701-1.856 2.283-3.064 2.082-.961-.166-2.613-1.738-2.507-1.952.435-.857 1.666-.315 2.429-1.298 1.39-1.791 1.093-3.874 1.878-5.84.844-2.117 4.256-1.517 4.295-4.562.018-1.238-1.141-1.941-1.989-2.77l-1.052-.753c-.504-.311-2.583-.282-2.248 1.26.161.75 1.518 2.829.154 3.169-1.848.464-4.421-.358-6.21-.814-.312-.081-2.559-.874-2.901-.818-.277.043-.514.117-.664.257-.748.756-.688 2.084-.074 2.821l.033.036a.6.6 0 0 0 .191.14c.399.104 1.863.195 1.895.195.838-.009 2.317.33 3.395.804v-.008c1.168.549 1.813.97.539 1.357-.021.008-.044.012-.066.021l-.018.005c-1.841.63-5.149-.995-6.981-.067a.8.8 0 0 0-.211.166c-.166.281-.67 1.318-.082 1.631.555.297 1.342.47 1.795.513.359.031 2.698-.01 3.784-.054.318-.012.742-.13.842-.173.199-.086.414-.159.654-.194.781-.112 1.436.038 1.076.992-.449 1.191-4.761 2.379-5.901 2.105-1.141-.271-2.408 1.231-2.452 1.456-.2 1.053-.099 2.215-.587 3.33-.647 1.487-1.992 3.53-1.258 5.192.193.54 3.551.706 7.402 1.244.261.037.523.078.783.112 2.437.371 4.998.902 7.028 1.781a48 48 0 0 0 1.984.811c2.801 1.427 5.689 3.22 6.142 3.742 2.227 2.577 5.672 6.814 6.999 5-.096-1.808-1.132-3.125-1.906-4.675-.323-.657.563-.945.912-1.396 1.297-1.67 1.627-4.214 2.059-6.218.363-1.675.603-3.382 1.037-5.037.504-1.904-2.088-3.203-3.788-3.692-.225-.064-.622-.485-.59-.618.312-1.357 2.803-.262 4.346.717.592.375 2.122.291 2.442-.254.48-.825.795-1.861 1.215-2.519 1.014-1.587-.184-2.336-1.473-3.067M185.433 295.751c-.057-.851-.027-2.845-.025-4.198.819.09 1.794.143 2.789.151l.008.117a6 6 0 0 0-1.292 4.095c.089 1.369.824 2.224 2.015 2.146.854-.057 1.349-.445 1.904-1.264.825-1.217 1.297-2.647 2.272-3.968 1.101-1.472 2.208-1.85 3.581-1.94 1.348-.089 4.008.496 4.336 5.551.062.945.113 2.437.062 3.699a32 32 0 0 0-2.691-.395l-.008-.117c.722-.688 1.28-1.484 1.165-3.255-.11-1.679-1.087-2.445-2.075-2.381-1.192.077-1.857.289-3.225 3.223-1.704 3.67-2.823 3.837-4.24 3.931-1.709.11-4.267-.67-4.576-5.395m10.529 19.818c-1.755.303-5.731 1.115-7.378 1.758a20 20 0 0 0-.28-1.873 30 30 0 0 0-.456-2.082c2.118-.203 5.284-.696 6.924-1-.161-1.104-.238-1.642-.394-2.481a54 54 0 0 0-.547-2.571c-2.456.483-4.58.902-6.814 1.583-.089-.851-.212-1.502-.282-1.874-.098-.535-.18-.977-.453-2.06 2.107-.152 5.802-.742 7.464-1.052 1.62-.301 6.943-1.148 7.425-2.007l.088-.018c.125.915.211 1.501.332 2.154.125.675.273 1.346.448 2.036-1.514-.006-3.686.398-6.501.922.153 1.199.244 1.687.404 2.549.157.836.231 1.234.536 2.5 3.386-.654 4.947-.896 6.275-1.769l.071.01c.073.756.172 1.293.332 2.154.121.651.303 1.508.452 2.057-2 .109-5.603.708-7.646 1.064m6.823 7.078-.028-.092c-1.958-.028-3.655.002-5.458.07.139.578.258 1.012.428 1.53.244.742.369 1.05.589 1.576a96 96 0 0 0 4.469-3.084m-9.804 8.668c-.228-.698-.429-1.305-.737-2.026 1.544-.58 3.735-1.996 4.769-2.683a33 33 0 0 0-.6-2.046c-.214-.652-.491-1.358-.675-1.847-1.274.02-4.01.218-5.351.907-.229-.772-.303-1.146-.488-1.708a26 26 0 0 0-.645-1.757c.94.189 2.632.358 3.333.402 1.476.09 3.55.183 5.175.223 1.461.044 3.818.071 5.637.047.524.003 1.383.02 1.845-.307l.129-.042c.236.722.441 1.275.61 1.72.237.644.485 1.261.772 1.914-.43.215-1.221.698-1.904 1.147a191 191 0 0 0-4.328 2.937c-2.141 1.499-3.351 2.369-4.411 3.189-.456.349-1.566 1.235-2.459 2.2a53 53 0 0 0-.672-2.27m13.396 12.234c-.936.448-4.818 2.257-6.456 3.226a16 16 0 0 0-1.379-2.463c1.166-1.846 3.417-5.131 4.433-6.56l3.062-4.356-.031-.065-3.964 1.901c-.752.359-4.727 2.551-6.008 3.587a18.6 18.6 0 0 0-1.38-2.884c2.208-.453 7.568-2.942 8.604-3.439.792-.38 4.065-1.843 5.131-3.009l.102-.048c.245.614.553 1.309.881 1.992.337.704.673 1.357.98 1.891-.772.894-2.475 3.024-3.277 4.222-1.572 2.356-2.587 3.787-3.457 5.095l.029.065 2.643-1.265c1.525-.732 5.428-2.866 6.17-3.719.143.404.42 1.034.645 1.502.306.641.337.704.724 1.361-1.94.485-6.374 2.449-7.452 2.966m5.478 15.674c-.521.313-1.564.943-2.572 1.749-1.537-1.596-2.386-2.68-3.493-4.359-2.682-4.075-2.247-7.308 2.498-10.432 2.919-1.922 7.149-3.122 10.821 2.455a68 68 0 0 1 2.578 4.281c-1.049.293-1.874.641-2.837 1.104l-.092-.137c.36-1.26.104-2.96-.991-4.622-1.705-2.588-4.426-2.129-7.494-.107-4.294 2.825-4.278 4.857-2.704 7.251.715 1.086 1.377.819 1.962.435l1.355-.892c.622-.41 1.375-.906 1.865-1.881l.108-.042c.328.578.725 1.222 1.103 1.797.495.752.637.968 1.149 1.625-.748.294-2.264 1.15-3.256 1.775m13.494 9.627c-1.354 1.159-4.356 3.891-5.442 5.284-.543-.72-.762-.97-1.2-1.469a30 30 0 0 0-1.458-1.557c1.72-1.255 4.188-3.296 5.442-4.397-.7-.865-1.042-1.29-1.605-1.928a53 53 0 0 0-1.784-1.931c-1.865 1.668-3.476 3.115-5.051 4.841-.51-.685-.947-1.183-1.197-1.468a29 29 0 0 0-1.44-1.538c1.731-1.205 4.605-3.604 5.878-4.718 1.236-1.086 5.378-4.535 5.353-5.52l.068-.06c.576.725.949 1.185 1.386 1.682.453.515.922 1.015 1.425 1.521-1.306.767-2.966 2.225-5.117 4.113a36 36 0 0 0 1.65 1.984c.563.642.828.944 1.738 1.877 2.578-2.293 3.795-3.3 4.491-4.729l.066-.027c.448.616.807 1.022 1.385 1.683a31 31 0 0 0 1.439 1.539c-1.662 1.112-4.452 3.468-6.027 4.818m9.492 2.61-.071-.063a97 97 0 0 0-4.659 2.845c.416.423.739.738 1.148 1.095.588.516.852.715 1.31 1.057a95 95 0 0 0 2.272-4.934m-4.012 12.457c-.552-.481-1.032-.903-1.665-1.366 1.03-1.286 2.194-3.622 2.731-4.741a36 36 0 0 0-1.559-1.454c-.517-.452-1.116-.917-1.522-1.242-1.087.666-3.339 2.234-4.14 3.508-.591-.546-.846-.831-1.292-1.219a26 26 0 0 0-1.451-1.181c.904-.316 2.446-1.035 3.072-1.356a158 158 0 0 0 4.565-2.448 152 152 0 0 0 4.871-2.836c.453-.265 1.2-.689 1.431-1.205l.09-.103c.569.499 1.03.872 1.401 1.168a32 32 0 0 0 1.639 1.254c-.258.403-.692 1.222-1.051 1.956a190 190 0 0 0-2.223 4.736c-1.077 2.382-1.676 3.746-2.167 4.993-.215.532-.717 1.86-.991 3.146a55 55 0 0 0-1.739-1.61m5.743 4.301a44 44 0 0 0-1.807-1.219c1.798-1.928 3.703-4.528 4.743-5.973 1.489-2.068 3.623-4.866 3.923-6.539l.04-.056c.569.467 1.056.846 1.611 1.246.557.402 1.199.809 1.884 1.273-1.415 1.398-3.886 4.87-4.388 5.564-.83 1.153-3.223 4.433-4.471 6.895-.819-.646-1.189-.941-1.535-1.191m17.796 2.023c-1.017 1.834-2.143 3.916-2.558 4.666-1.246 2.248-3.259 3.245-8.182 1.189l.441-1.379c2.003.826 3.198.819 4.501-1.141.477-.716 1.546-2.598 2.333-4.018 1.365-2.464 3.605-6.07 3.6-7.721l.055-.099c.703.44 1.314.805 1.892 1.124.581.322 1.151.612 1.856.952-1.444 1.728-3.12 4.948-3.938 6.427m3.946 10.587c-.925-.484-1.345-.705-1.73-.885-.644-.303-1.082-.482-2.001-.863 1.409-2.227 2.798-5.138 3.553-6.751 1.08-2.307 2.658-5.451 2.643-7.151l.028-.061c.646.353 1.195.633 1.816.925.621.29 1.326.57 2.086.902-1.133 1.636-2.916 5.504-3.282 6.28-.599 1.288-2.342 4.953-3.115 7.604zm12.59-7.977-.089-.029a96 96 0 0 0-3.292 4.353c.542.241.957.414 1.47.597.736.264 1.056.353 1.605.504.154-1.765.256-3.669.306-5.425m.833 13.063c-.69-.248-1.291-.462-2.051-.663.488-1.572.715-4.173.805-5.41a34 34 0 0 0-1.983-.782c-.646-.23-1.375-.443-1.873-.598-.768 1.019-2.288 3.302-2.565 4.783-.75-.293-1.092-.464-1.648-.663a27 27 0 0 0-1.785-.566c.728-.626 1.898-1.859 2.363-2.389a155 155 0 0 0 6.842-8.375c.323-.411.864-1.08.89-1.644l.046-.128c.713.256 1.277.434 1.73.573.655.21 1.293.39 1.985.567-.091.467-.195 1.388-.26 2.203-.13 1.632-.255 3.669-.333 5.22-.129 2.612-.186 4.1-.186 5.441-.004.575.015 1.993.231 3.292a51 51 0 0 0-2.208-.861m9.208-5.094c-.748 3.483-.317 6.09 2.321 6.657 3.102.668 4.288-2.259 4.934-5.258.606-2.821.81-6.236-2.2-6.882-3.031-.654-4.348 2.2-5.055 5.483m10.782 2.113c-.739 3.438-2.604 7.372-8.781 6.043-3.751-.806-6.874-2.607-5.513-8.935.791-3.68 2.641-7.549 8.797-6.224 5.278 1.136 6.545 4.245 5.497 9.116m19.242-4.355-.14-.006c-.513-.266-2.109-.64-4.074-.712-.017.473-.199 3.533-.316 6.78-.118 3.198.071 6.476.17 7-.942-.08-1.204-.112-2.032-.141-.71-.027-1.23-.047-2.108-.01.405-1.972.603-6.16.661-7.693.059-1.622.116-4.552.149-6.062-1.657-.06-3.792.041-4.42.403l-.143-.005c.166-.649.341-1.568.362-2.153 2.197.214 3.993.303 6.002.376 2.179.078 4.284.156 6.441.078-.231.509-.404 1.383-.552 2.145m4.393 5.523c.299 3.549 1.473 5.918 4.16 5.689 3.16-.264 3.445-3.41 3.187-6.464-.241-2.877-1.043-6.205-4.111-5.947-3.091.262-3.517 3.373-3.236 6.722m10.929-1.124c.295 3.506-.34 7.813-6.638 8.343-3.822.322-7.336-.491-7.877-6.941-.316-3.753.323-7.988 6.6-8.518 5.38-.451 7.497 2.152 7.915 7.116m14.359-2.718c.225 1.013 1.111 5.204 1.684 7.017a16 16 0 0 0-2.709.79c-1.535-1.553-4.228-4.487-5.392-5.799l-3.552-3.966-.069.017.957 4.29c.184.815 1.422 5.18 2.141 6.66-.565.08-1.032.162-1.563.279-.508.114-1.082.264-1.557.419.055-2.255-1.16-8.035-1.413-9.158-.189-.859-.878-4.378-1.775-5.679l-.025-.11c.658-.1 1.402-.242 2.142-.407.76-.17 1.474-.352 2.064-.53.697.953 2.388 3.094 3.373 4.143 1.941 2.062 3.106 3.373 4.188 4.519l.065-.016-.635-2.861c-.37-1.648-1.567-5.932-2.232-6.848a18 18 0 0 0 1.608-.288c.696-.156.767-.172 1.487-.403.035 2.001.953 6.765 1.213 7.931m16.512-1.743c.185.58.558 1.739 1.115 2.904-1.908 1.132-3.158 1.709-5.048 2.403-4.578 1.674-7.627.509-9.581-4.826-1.203-3.28-1.398-7.673 4.872-9.968a67 67 0 0 1 4.758-1.529c.047 1.089.193 1.971.425 3.015l-.156.058c-1.142-.64-2.857-.78-4.724-.097-2.913 1.067-3.089 3.82-1.824 7.271 1.765 4.829 3.746 5.278 6.437 4.294 1.222-.447 1.116-1.154.873-1.81l-.557-1.525c-.254-.696-.565-1.544-1.404-2.246l-.015-.114a33 33 0 0 0 2.003-.661c.845-.309 1.088-.398 1.842-.746.117.798.603 2.468.984 3.577m16.246-16.608c.836 1.496 1.826 3.294 2.715 4.786 1.456 2.439 1.506 4.929-2.559 7.354-4.27 2.546-6.204 1.52-7.819-1.19-.416-.697-1.484-2.58-2.234-3.839-.532-.89-2.302-4.089-3.494-4.743l-.033-.058a31 31 0 0 0 1.846-1.023c.607-.363 1.097-.654 1.854-1.184.629 1.881 2.727 5.356 3.27 6.267 1.349 2.264 2.248 3.725 2.82 4.223.806.702 2.048.8 3.228.096 2.787-1.661 1.986-3.417.232-6.358-2.459-4.126-3.322-5.711-4.893-7.005a18 18 0 0 0 1.558-.851c.631-.376.963-.601 1.431-.931.598 1.927 1.568 3.554 2.078 4.456m13.637-6.632c.646.812 3.277 4.191 4.586 5.571a16.3 16.3 0 0 0-2.092 1.895c-2.057-.724-5.763-2.184-7.384-2.853l-4.931-2.01-.054.043 2.739 3.439c.52.652 3.545 4.035 4.838 5.054-.473.317-.857.594-1.285.933-.405.325-.856.711-1.215 1.055-.936-2.05-4.56-6.715-5.276-7.614-.547-.688-2.706-3.551-4.082-4.33l-.071-.088a33 33 0 0 0 1.748-1.304c.61-.486 1.17-.961 1.623-1.379 1.045.552 3.501 1.736 4.847 2.25 2.648 1.006 4.269 1.675 5.743 2.233l.055-.044-1.827-2.295c-1.053-1.322-4.002-4.65-5.002-5.181.359-.231.912-.642 1.32-.965.555-.441.611-.487 1.162-1.011.908 1.787 3.815 5.665 4.558 6.601m9.345 1.026c-.51.494-.832.841-1.518 1.567-1.583-2.108-3.812-4.439-5.054-5.715-1.773-1.829-4.155-4.418-5.751-5.006l-.047-.049c.556-.48 1.014-.892 1.507-1.369.493-.479 1.006-1.038 1.586-1.632 1.127 1.639 4.111 4.678 4.709 5.293.988 1.019 3.8 3.947 6.006 5.606-.778.695-1.134 1.008-1.438 1.305m1.777-20.483c.734 1.254 1.896 3.154 2.898 4.825 1.005 1.671 2.994 4.998 3.884 6.417a15 15 0 0 0-1.588 2.13 245 245 0 0 0-7.456-3.151c-1.989-.799-3.876-1.576-5.21-2.066-.816-.294-1.947-.638-2.5-.615l-.068-.059a18 18 0 0 0 1.515-1.665 37 37 0 0 0 1.444-1.786c.478.411 1.338.898 1.943 1.23.995.541 2.767 1.314 4.689 2.12 1.42.595 2.425 1.051 3.626 1.487l.061-.071c-.611-1.055-1.928-3.088-2.582-4.055-1.627-2.362-2.894-4.105-4.178-4.862.42-.42.76-.781 1.163-1.249.384-.449.693-.809 1.058-1.338.361.997.869 1.964 1.301 2.708m17.441-3.212c-1.351 1.829-2.131 3.018-2.982 4.271-.902 1.332-1.17 1.723-2.563 3.895-1.774-1.602-3.588-2.864-6.03-4.522-2.52-1.71-5.604-3.95-6.679-3.85l-.056-.038c.972-1.314 2.195-3.114 2.886-4.133.559-.822 1.513-2.266 2.739-4.15.29.454 1.067 1.154 1.534 1.472l-.053.078c-1 .751-2.262 2.327-3.579 4.265 1.12.961 3.198 2.315 4.187 2.985.839-1.232 1.484-2.224 2.131-3.618a14.5 14.5 0 0 0 1.619 1.387c-1.188 1.024-1.887 2.096-2.526 3.036l2.221 1.507c2.108 1.432 2.597 1.392 3.382.236.998-1.47 1.822-3.084 2.002-4.392l.079-.118c.573.761 1.093 1.2 1.688 1.689m-7.887-14.402c-.328.629-.536 1.08-.686 1.51.897.573 2.078 1.188 2.418 1.364.881.458 1.37.738 2.189 1.166.285-.494.457-.778.642-1.135.708-1.365.602-2.624-1.48-3.705-1.759-.916-2.634-.062-3.083.8m14.492 2.038c-.326.631-.551 1.156-.934 1.942-1.177-.372-2.461-.639-3.911-.885-1.447-.245-2.521-.379-3.09-.114-.572.264-.867.884-1.295 1.754 1.121.531 4.865 2.424 6.427 2.838a34 34 0 0 0-1.034 1.838 28 28 0 0 0-.864 1.816c-1.79-1.303-5.521-3.216-6.701-3.831-2.02-1.051-5.688-3.04-6.891-3.022l-.059-.032c.588-1.082 1.024-1.921 1.582-2.993.645-1.24 1.106-2.175 1.795-3.496 1.418-2.731 3.242-2.823 4.906-1.958 1.718.894 2.683 2.703 1.871 4.949l.041.021c.619-1.094 1.464-1.401 2.478-1.299.701.073.914.101 2.152.264 1.591.214 3.527.5 4.482.225l.119.061a51 51 0 0 0-1.074 1.922m3.362-7.597c-.305.796-1.165 2.595-1.733 3.823a29 29 0 0 0-2.469-1.304l.043-.11a6 6 0 0 0 2.885-3.177c.494-1.282.181-2.365-.934-2.793-.797-.307-1.41-.162-2.258.35-1.256.761-2.283 1.862-3.722 2.653-1.618.876-2.781.759-4.064.266-1.263-.484-3.432-2.13-1.617-6.858.34-.884.916-2.26 1.492-3.383a32 32 0 0 0 2.279 1.484l-.041.11c-.945.322-1.785.812-2.421 2.469-.602 1.569-.038 2.673.888 3.03 1.117.427 1.807.514 4.278-1.58 3.083-2.619 4.171-2.304 5.495-1.795 1.599.615 3.596 2.395 1.899 6.815m3.426-10.589c-.199.683-.309 1.144-.543 2.11-2.418-1.047-5.509-1.97-7.218-2.467-2.447-.713-5.8-1.786-7.475-1.509l-.065-.018c.248-.693.442-1.278.633-1.936.191-.66.361-1.398.57-2.202 1.789.868 5.89 2.034 6.712 2.273 1.364.395 5.255 1.553 7.993 1.904-.334.988-.49 1.435-.607 1.845m-9.306-18.417-.029.14c-.344.462-.969 1.978-1.352 3.907.465.092 3.457.761 6.641 1.394 3.14.627 6.405.963 6.937.95-.229.92-.301 1.17-.465 1.982a24 24 0 0 0-.344 2.079c-1.881-.711-5.985-1.578-7.489-1.878a476 476 0 0 0-5.959-1.115c-.324 1.625-.564 3.749-.31 4.429l-.026.138c-.614-.266-1.491-.586-2.07-.701.563-2.133.938-3.893 1.331-5.866.425-2.135.837-4.202 1.104-6.346.466.31 1.303.621 2.031.887" style="stroke:none;fill:#a50000"/><path d="M420.514 291.455c1.168.929 2.384 1.813 6.7 4.597 1.482.122 2.291.19 3.375.211 1.015.012 2.281.024 3.017-.105-.138.845-.184 1.408-.237 2.048-.057.66-.085 1.014-.11 2.104-.656-.245-2.129-.511-2.891-.576-1.078-.089-1.904-.228-3.389-.353a115 115 0 0 0-7.522 3.411c-.496.242-1.405.809-1.753 1.184l-.09-.008c.114-.798.201-1.574.268-2.377.066-.801.113-1.629.144-2.529a4.4 4.4 0 0 0 1.628-.268c1.211-.421 2.883-.923 5.535-2.08l.007-.071c-1.419-.903-3.499-1.979-4.719-2.556-.586-.285-1.426-.523-1.991-.523.092-.585.148-.984.217-1.81.051-.613.1-1.202.079-1.751.585.597 1.394 1.209 1.732 1.452m-1-63.32c-.129 2.18-2.435 3.648-4.257 4.67-1.781.995-4.151-1.351-4.549-2.838-.197-.723-.389-2.993.256-3.514.744-.597 1.814-.128 2.568-.752.069-.053.151-.387.139-.476-.26-2.15 3-.798 4.705.55.516.407 1.158 1.969 1.138 2.36m4.406 14.022c-.141-.618-.596-2.269-.65-3.349l-.002.004c-.057-2.828-.737-5.291-1.118-8.086-.164-1.213-.822-5.723 1.286-5.687.128.002.511-.466.523-.61.189-2.221-1.25-3.096-3.231-2.289-1.099.446-1.72.595-2.769-.09-.222-.143-2.358-1.359-4.319-2.663-1.239-.819-5.019-3.703-5.019-3.703-1.723-1.03-3.437-3.639-4.459-.656 1.32 2.651 4.293 3.597 6.333 5.446 1.002.877 1.688 2.798-.354 2.118-1.997-.714-4.28-3.176-5.504-3.878-1.147-.665-3.796-.923-2.882 1.184.539 1.24 1.536 2.336 2.776 2.912.686.319 3.092 1.108 3.233 1.648.373.769.209 2.693-.338 3.366-.895 1.1-3.291-.652-4.444-1.558-.066-.054-.565-.374-1.251-.781-.756-.455-2.412-1.235-3.519-1.738a25 25 0 0 0-2.088-.773c-1.215-.362-5.071-1.313-4.312 1.415a.74.74 0 0 0 .241.275 28 28 0 0 0 2.38 1.464c1.013.556 5.644 1.986 7.343 2.9 1.601.863 3.445 1.302 4.808 2.575.573.54.783 1.007.898 1.503.118.495.715 3.473.715 4.536 0 2.705-.695 5.898-1.328 7.943-.652 2.115-2.525 5.606.895 5.733 3.411.128 3.282-11.082 3.477-13.549.059-.751.319-4.125 1.801-2.887 2.469 2.07 1.826 5.431 2.125 8.195.082.791.775 1.003 1.463 1.21.228.07 1.115.03 1.219-.133.563-.898.649-2.041.59-3.079-.097-1.802-.956-4.31-.246-6.108.494-1.03 1.272-1.379 1.633-.12.016.055.031.094.049.138.103.378.26 1.557.254 1.806-.045 2.023.724 7.389.828 7.524.797 1.056 2.26 1.635 3.285.237.35-.421-.185-1.777-.322-2.395m-102.024 94.435c0 .358-.323.65-.717.65h-6.992c-.4 0-.724-.292-.724-.65v-1.604c0-.354.324-.646.724-.646v.006h6.992c.387 0 .717.296.717.647zm1.895-4.229h-12.216c-.855 0-1.547.752-1.547 1.681v3.568c0 .922.692 1.673 1.547 1.673l4.795.002 4.809.004c.387 0 .717.298.717.649v1.115c0 .356-.323.646-.717.646h-6.998a.72.72 0 0 1-.638-.36h-3.515v.67c0 .922.692 1.674 1.547 1.674h12.216c.851 0 1.545-.752 1.545-1.678v-7.963c0-.929-.694-1.681-1.545-1.681m9.305 7.09c0-.356.319-.648.713-.648h6.992c.398 0 .726.292.726.648v1.604c0 .357-.328.649-.726.649v-.008h-6.992c-.388 0-.713-.297-.713-.648zm-1.9 4.232h12.218c.851 0 1.547-.754 1.547-1.68v-3.569c0-.923-.696-1.675-1.547-1.675l-4.795-.002-4.81-.002c-.388 0-.713-.299-.713-.651v-1.113c0-.357.319-.648.713-.648h6.999c.282 0 .522.148.637.363h3.516v-.673c0-.923-.696-1.673-1.547-1.673h-12.218c-.848 0-1.542.752-1.542 1.679v7.964c0 .926.694 1.68 1.542 1.68" style="stroke:none;fill:#a50000"/></svg>